<?xml version="1.0" encoding="UTF-8" standalone="no"?>
<!-- Created with Inkscape (http://www.inkscape.org/) -->

<svg
   xmlns:dc="http://purl.org/dc/elements/1.1/"
   xmlns:cc="http://creativecommons.org/ns#"
   xmlns:rdf="http://www.w3.org/1999/02/22-rdf-syntax-ns#"
   xmlns:svg="http://www.w3.org/2000/svg"
   xmlns="http://www.w3.org/2000/svg"
   xmlns:sodipodi="http://sodipodi.sourceforge.net/DTD/sodipodi-0.dtd"
   xmlns:inkscape="http://www.inkscape.org/namespaces/inkscape"
   id="svg3353"
   version="1.1"
   inkscape:version="0.91 r13725"
   width="489.80228"
   height="680.85327"
   viewBox="0 0 489.80228 680.85327"
   sodipodi:docname="Celticpattern.svg">
  <metadata
     id="metadata3359">
    <rdf:RDF>
      <cc:Work
         rdf:about="">
        <dc:format>image/svg+xml</dc:format>
        <dc:type
           rdf:resource="http://purl.org/dc/dcmitype/StillImage" />
        <dc:title></dc:title>
      </cc:Work>
    </rdf:RDF>
  </metadata>
  <defs
     id="defs3357" />
  <sodipodi:namedview
     pagecolor="#ffffff"
     bordercolor="#666666"
     borderopacity="1"
     objecttolerance="10"
     gridtolerance="10"
     guidetolerance="10"
     inkscape:pageopacity="0"
     inkscape:pageshadow="2"
     inkscape:window-width="1440"
     inkscape:window-height="838"
     id="namedview3355"
     showgrid="false"
     inkscape:zoom="0.34662388"
     inkscape:cx="244.90114"
     inkscape:cy="340.42664"
     inkscape:window-x="-8"
     inkscape:window-y="-8"
     inkscape:window-maximized="1"
     inkscape:current-layer="svg3353" />
  <path
     style="fill:#000000"
     d="M 87.933896,617.4915 69.731625,599.2774 87.085998,581.92051 104.44037,564.56373 87.166741,547.2875 69.893061,530.0114 87.253064,512.65391 104.61306,495.29641 87.253372,477.93426 69.893699,460.57205 l 35.656671,-35.65547 35.65666,-35.65546 17.35783,17.3603 17.35789,17.36035 17.36249,-17.35998 17.36242,-17.35998 18.12468,18.12706 c 9.96851,9.96987 18.12464,18.35567 18.12464,18.63517 0,0.2795 -7.69661,8.20587 -17.10348,17.61411 l -17.10344,17.10592 17.10344,17.10596 c 9.40687,9.40834 17.10348,17.25799 17.10348,17.44387 0,0.18587 -7.73747,8.0765 -17.19427,17.53464 l -17.19436,17.19686 17.19436,17.16363 c 9.4568,9.44009 17.19427,17.32637 17.19427,17.52515 0,0.45922 -70.51453,70.99146 -70.97362,70.99146 -0.18757,0 -8.07538,-7.73536 -17.52838,-17.18975 l -17.18721,-17.18989 -17.1924,17.18989 c -9.45563,9.45439 -17.34684,17.18975 -17.5356,17.18975 -0.18893,0 -8.534516,-8.19627 -18.545874,-18.21414 z m 110.116964,-28.75984 -10.54954,-10.5537 -10.55095,10.55094 -10.5509,10.55097 4.75886,4.76791 4.75878,4.76795 5.80575,-5.79872 5.80566,-5.79862 0.75087,0.79939 c 0.41298,0.43958 0.75097,1.01761 0.75097,1.28462 0,0.5464 -12.56488,13.25652 -13.10503,13.25652 -0.19093,0 -3.33158,-2.98745 -6.97935,-6.63878 l -6.63222,-6.63877 24.16361,-24.16551 24.16376,-24.16553 6.55461,6.54807 c 3.605,3.6015 6.55461,6.77797 6.55461,7.05873 0,0.52747 -12.53099,13.28182 -13.04922,13.28182 -0.16021,0 -0.75139,-0.32764 -1.31389,-0.72817 l -1.02275,-0.72828 5.82129,-5.82833 5.82121,-5.82837 -4.76796,-4.75886 -4.76784,-4.75874 -10.46445,10.46434 -10.46444,10.46446 10.55244,10.55249 10.55251,10.55244 16.33775,-16.34235 16.33785,-16.3423 -28.84821,-28.82137 c -15.86657,-15.85168 -28.84828,-28.84103 -28.84828,-28.86516 0,-0.0732 24.95,-25.02234 25.02345,-25.02234 0.32002,0 13.10054,13.13453 13.10054,13.46348 0,0.54189 -12.45084,12.87537 -13.1569,13.03287 -0.28571,0.0633 -0.894,-0.23586 -1.3516,-0.66585 l -0.83207,-0.78164 5.79857,-5.80574 5.79864,-5.80573 -4.76796,-4.75884 -4.76786,-4.75876 -10.55093,10.55082 -10.55088,10.55093 10.55361,10.54955 10.55369,10.54952 16.42307,-16.42609 16.42312,-16.42602 -28.8485,-28.81616 c -15.86664,-15.84887 -28.81011,-28.85804 -28.7631,-28.90921 0.0472,-0.0515 5.66949,-5.69863 12.49458,-12.54999 l 12.40916,-12.45692 6.56771,6.56119 c 3.61216,3.6086 6.56765,6.79092 6.56765,7.07173 0,0.54936 -12.54201,13.28186 -13.08311,13.28186 -0.17889,0 -0.75889,-0.41549 -1.289,-0.92341 l -0.96387,-0.92343 5.79637,-5.80334 5.79625,-5.80342 -4.68413,-4.67517 -4.68412,-4.67517 -10.5475,10.55168 -10.54752,10.55168 10.4657,10.46576 10.46585,10.46582 16.2531,-16.25314 16.25316,-16.25319 -16.25311,-16.2531 -16.25306,-16.25308 -28.679,28.67739 c -15.77341,15.77262 -28.83453,28.67746 -29.02486,28.67746 -0.19018,0 -5.93123,-5.59321 -12.75797,-12.42927 l -12.41204,-12.42925 6.88587,-6.88581 6.8859,-6.88588 6.63865,6.63223 c 3.65138,3.64772 6.63886,6.777 6.63886,6.95396 0,0.45118 -1.40451,1.89731 -1.84283,1.89731 -0.19938,0 -2.89344,-2.52761 -5.98668,-5.61689 l -5.62428,-5.61691 -4.67511,4.68405 -4.67505,4.68413 10.55158,10.54749 10.55173,10.54754 10.46574,-10.46578 10.46587,-10.46577 -16.25331,-16.25333 -16.25317,-16.25322 -33.61339,33.61323 -33.613222,33.61333 16.252926,16.25295 16.252916,16.25291 16.33966,-16.33687 16.33961,-16.33699 -10.55189,-10.55179 -10.55171,-10.55174 -10.55317,10.54902 -10.553125,10.549 4.764775,4.76467 4.76473,4.76483 6.08058,-6.07364 6.08058,-6.07351 0.72834,1.02268 c 0.4005,0.56254 0.72823,1.15097 0.72823,1.30748 0,0.41186 -13.37266,13.7365 -13.7859,13.7365 -0.19083,0 -3.33144,-2.98751 -6.979327,-6.639 l -6.6325,-6.639 12.600907,-12.60087 12.60083,-12.60086 28.92375,28.94172 28.92366,28.94163 10.55222,-10.55212 10.55208,-10.55207 -10.54901,-10.55312 -10.54902,-10.55317 -4.76454,4.76459 -4.76466,4.76461 5.52874,5.53628 c 3.0407,3.04501 5.52865,5.75238 5.52865,6.01638 0,0.58599 -0.98799,1.725 -1.49623,1.725 -0.40725,0 -13.48099,-12.94645 -13.48099,-13.34966 0,-0.13818 3.02518,-3.23075 6.72271,-6.87249 l 6.72278,-6.62135 12.25411,12.14532 c 6.73971,6.67982 12.29804,12.37552 12.35188,12.65684 0.13002,0.68069 -47.24124,48.05183 -47.92187,47.92184 -0.28138,-0.0535 -5.97701,-5.61213 -12.65688,-12.35189 l -12.14523,-12.25412 6.62127,-6.72274 c 3.64183,-3.69752 6.73145,-6.72275 6.866,-6.72275 0.366,0 13.35624,13.04783 13.35624,13.41546 0,0.53484 -1.0954,1.56182 -1.66591,1.56182 -0.29653,0 -3.0305,-2.48792 -6.0755,-5.52873 l -5.53636,-5.52868 -4.76458,4.76463 -4.76455,4.76449 10.55311,10.54902 10.55318,10.54902 10.55171,-10.55171 10.55187,-10.55182 -16.33975,-16.33701 -16.33965,-16.33707 -33.6129,33.61279 -33.612792,33.61282 16.252726,16.2527 16.252606,16.25274 11.50086,-11.4971 11.50069,-11.49701 0.92433,0.96463 c 0.50831,0.53053 0.92414,1.10911 0.92414,1.28563 0,0.17665 -12.90475,13.2266 -28.67738,28.99997 l -28.677431,28.67896 16.253177,16.25312 16.253004,16.2532 16.25316,-16.25326 16.25323,-16.25312 -10.4665,-10.4665 -10.46648,-10.46649 -10.46591,10.46598 -10.466007,10.46601 4.678127,4.67806 4.67828,4.67824 5.7026,-5.6796 5.70263,-5.67956 0.93617,0.75936 c 0.5148,0.41755 0.93609,0.9081 0.93609,1.0901 0,0.43828 -13.013,13.42942 -13.45196,13.42942 -0.18732,0 -3.32504,-2.98753 -6.972927,-6.63899 l -6.6325,-6.63899 12.594677,-12.59463 12.59479,-12.59479 28.93108,28.93448 28.93122,28.9345 16.3376,-16.33761 16.33762,-16.33753 -10.5495,-10.5537 z m -58.03633,-11.74289 -12.42007,-12.42366 6.8023,-6.8086 6.80211,-6.80861 6.73264,6.72286 c 3.70297,3.69752 6.69135,6.92465 6.64086,7.17153 -0.051,0.24675 -0.51377,0.70397 -1.02947,1.01575 l -0.93753,0.56709 -5.6161,-5.60837 -5.61627,-5.60848 -4.76458,4.76462 -4.76455,4.7645 10.46941,10.46538 10.4694,10.46522 10.54887,-10.55308 10.54895,-10.55302 -27.825,-27.825 -27.825,-27.82499 -10.55175,10.54779 -10.551899,10.5477 4.675049,4.68412 4.67522,4.68422 5.80337,-5.79634 5.80337,-5.79636 0.92351,0.96386 c 0.50789,0.53012 0.92339,1.11012 0.92339,1.28901 0,0.54106 -12.7325,13.08307 -13.28189,13.08307 -0.28088,0 -3.46307,-2.95547 -7.071739,-6.56758 l -6.561223,-6.56765 12.456962,-12.4093 c 6.85139,-6.82505 12.49672,-12.44554 12.54544,-12.49005 0.0482,-0.0439 13.05706,12.899 28.90756,28.76312 l 28.81912,28.84399 10.64087,-10.63657 10.64096,-10.63654 -10.54901,-10.55311 -10.54902,-10.55312 -4.76454,4.7646 -4.76466,4.76459 5.52874,5.53626 c 3.0407,3.04494 5.52865,5.77889 5.52865,6.07548 0,0.6379 -1.17774,1.78787 -1.65472,1.61576 -0.46893,-0.16935 -13.3225,-12.86622 -13.3225,-13.16016 0,-0.13284 3.02847,-3.26717 6.72977,-6.96518 l 6.72984,-6.7235 12.24701,12.26449 c 7.78748,7.79848 12.24704,12.508 12.24704,12.93339 0,0.69188 -46.95944,47.99447 -47.64618,47.99447 -0.19391,0 -5.94161,-5.59062 -12.77271,-12.4236 z"
     id="path3363"
     inkscape:connector-curvature="0" />
</svg>
