<?xml version="1.0" encoding="UTF-8" standalone="no"?>
<!-- Created with Inkscape (http://www.inkscape.org/) -->

<svg
   xmlns:dc="http://purl.org/dc/elements/1.1/"
   xmlns:cc="http://creativecommons.org/ns#"
   xmlns:rdf="http://www.w3.org/1999/02/22-rdf-syntax-ns#"
   xmlns:svg="http://www.w3.org/2000/svg"
   xmlns="http://www.w3.org/2000/svg"
   xmlns:sodipodi="http://sodipodi.sourceforge.net/DTD/sodipodi-0.dtd"
   xmlns:inkscape="http://www.inkscape.org/namespaces/inkscape"
   id="svg3353"
   version="1.1"
   inkscape:version="0.91 r13725"
   width="489.80228"
   height="680.85327"
   viewBox="0 0 489.80228 680.85327"
   sodipodi:docname="Celticpattern.svg">
  <metadata
     id="metadata3359">
    <rdf:RDF>
      <cc:Work
         rdf:about="">
        <dc:format>image/svg+xml</dc:format>
        <dc:type
           rdf:resource="http://purl.org/dc/dcmitype/StillImage" />
        <dc:title />
      </cc:Work>
    </rdf:RDF>
  </metadata>
  <defs
     id="defs3357" />
  <sodipodi:namedview
     pagecolor="#ffffff"
     bordercolor="#666666"
     borderopacity="1"
     objecttolerance="10"
     gridtolerance="10"
     guidetolerance="10"
     inkscape:pageopacity="0"
     inkscape:pageshadow="2"
     inkscape:window-width="1440"
     inkscape:window-height="838"
     id="namedview3355"
     showgrid="false"
     inkscape:zoom="0.34662388"
     inkscape:cx="244.90114"
     inkscape:cy="340.42664"
     inkscape:window-x="-8"
     inkscape:window-y="-8"
     inkscape:window-maximized="1"
     inkscape:current-layer="svg3353" />
  <path
     style="fill:#000000"
     d="m 77.582833,627.84931 -7.851208,-7.85631 7.485483,-7.48657 7.485482,-7.48652 -7.450655,-7.45177 -7.450678,-7.45172 7.487911,-7.48683 7.487909,-7.48683 -7.487776,-7.48884 -7.487768,-7.48886 15.379835,-15.37932 15.379832,-15.37931 7.48697,7.48804 7.487,7.48806 7.48899,-7.4879 7.48895,-7.4879 7.81774,7.81876 c 4.29973,4.30032 7.81772,7.91738 7.81772,8.03793 0,0.12056 -3.31979,3.53945 -7.37726,7.59752 l -7.37725,7.37831 7.37725,7.37834 c 4.05747,4.05811 7.37726,7.44391 7.37726,7.52408 0,0.0802 -3.33741,3.48365 -7.41642,7.56324 l -7.41647,7.41754 7.41647,7.40321 c 4.07901,4.07181 7.41642,7.47341 7.41642,7.55915 0,0.19807 -30.41512,30.62083 -30.61314,30.62083 -0.0809,0 -3.48316,-3.3365 -7.56053,-7.41448 l -7.41338,-7.41453 -7.415622,7.41453 c -4.078508,4.07798 -7.482233,7.41448 -7.563651,7.41448 -0.08149,0 -3.681203,-3.53531 -7.999414,-7.85633 z m 47.496887,-12.40501 -4.55035,-4.55214 -4.55095,4.55095 -4.55094,4.55096 2.05265,2.05655 2.05261,2.05656 2.5042,-2.50117 2.50416,-2.50112 0.32388,0.3448 c 0.17813,0.1896 0.32391,0.43893 0.32391,0.5541 0,0.23568 -5.41962,5.71795 -5.65261,5.71795 -0.0824,0 -1.43701,-1.28858 -3.01041,-2.86352 l -2.86068,-2.8635 10.42252,-10.42334 10.42258,-10.42335 2.82721,2.82439 c 1.55495,1.55344 2.82721,2.92355 2.82721,3.04465 0,0.22751 -5.40501,5.72886 -5.62854,5.72886 -0.0691,0 -0.3241,-0.14132 -0.56672,-0.31408 l -0.44114,-0.31413 2.5109,-2.51394 2.51087,-2.51396 -2.05657,-2.05264 -2.05652,-2.0526 -4.51364,4.5136 -4.51364,4.51365 4.55159,4.55161 4.55163,4.5516 7.04698,-7.04896 7.04703,-7.04895 -12.44314,-12.43155 c -6.84374,-6.83733 -12.44316,-12.44004 -12.44316,-12.45045 0,-0.0316 10.76171,-10.79291 10.7934,-10.79291 0.13803,0 5.65067,5.66533 5.65067,5.80721 0,0.23374 -5.37044,5.55355 -5.67498,5.62149 -0.12324,0.0273 -0.38561,-0.10174 -0.58299,-0.2872 l -0.3589,-0.33715 2.50111,-2.5042 2.50113,-2.50419 -2.05657,-2.05264 -2.05653,-2.0526 -4.55094,4.5509 -4.55093,4.55095 4.55211,4.55035 4.55213,4.55033 7.08378,-7.08508 7.08381,-7.08506 -12.44326,-12.42931 c -6.84378,-6.83611 -12.4267,-12.44737 -12.40642,-12.46944 0.0204,-0.0222 2.44542,-2.458 5.3893,-5.4132 l 5.35246,-5.37306 2.83286,2.83004 c 1.55803,1.55651 2.83283,2.92914 2.83283,3.05026 0,0.23696 -5.40976,5.72888 -5.64316,5.72888 -0.0772,0 -0.32733,-0.17921 -0.55598,-0.39829 l -0.41575,-0.39831 2.50016,-2.50316 2.5001,-2.50319 -2.02041,-2.01655 -2.02041,-2.01655 -4.54946,4.55127 -4.54948,4.55127 4.51418,4.51421 4.51425,4.51423 7.01047,-7.01048 7.0105,-7.01051 -7.01048,-7.01047 -7.01045,-7.01046 -12.37015,12.36945 c -6.80356,6.80323 -12.43723,12.36949 -12.51933,12.36949 -0.082,0 -2.55832,-2.41253 -5.50291,-5.36114 l -5.353696,-5.36112 2.97009,-2.97006 2.970106,-2.9701 2.86345,2.86069 c 1.57496,1.57337 2.86355,2.92313 2.86355,2.99946 0,0.19461 -0.60581,0.81837 -0.79487,0.81837 -0.086,0 -1.24803,-1.09024 -2.58224,-2.42274 l -2.42593,-2.42275 -2.016518,2.02038 -2.016495,2.02041 4.551223,4.54946 4.55129,4.54948 4.5142,-4.51422 4.51426,-4.51421 -7.01056,-7.01057 -7.0105,-7.01052 -14.498503,14.49844 -14.498432,14.49848 7.010394,7.0104 7.01039,7.01039 7.047805,-7.0466 7.047784,-7.04666 -4.551359,-4.55131 -4.551282,-4.5513 -4.551912,4.55012 -4.551892,4.55012 2.055196,2.05515 2.055177,2.05522 2.622744,-2.61975 2.622744,-2.6197 0.314155,0.44111 c 0.172749,0.24265 0.314109,0.49645 0.314109,0.56396 0,0.17765 -5.768046,5.92498 -5.946289,5.92498 -0.08231,0 -1.436954,-1.2886 -3.010402,-2.8636 l -2.860804,-2.86361 5.435165,-5.43515 5.435131,-5.43515 12.475711,12.48347 12.47568,12.48343 4.5515,-4.55146 4.55145,-4.55144 -4.55012,-4.55189 -4.55012,-4.55191 -2.0551,2.05512 -2.05514,2.05512 2.38471,2.38797 c 1.31155,1.31341 2.38468,2.48119 2.38468,2.59506 0,0.25275 -0.42615,0.74404 -0.64537,0.74404 -0.17566,0 -5.81477,-5.5842 -5.81477,-5.75812 0,-0.0596 1.30485,-1.39353 2.89971,-2.96432 l 2.89975,-2.856 5.28558,5.23866 c 2.90705,2.88121 5.30453,5.33795 5.32775,5.45929 0.0561,0.2936 -20.37662,20.72625 -20.6702,20.67018 -0.12137,-0.0231 -2.57807,-2.42068 -5.4593,-5.32775 l -5.238621,-5.28559 2.85596,-2.89972 c 1.570835,-1.59486 2.903481,-2.89973 2.961521,-2.89973 0.15787,0 5.76096,5.62793 5.76096,5.7865 0,0.23069 -0.47248,0.67366 -0.71856,0.67366 -0.1279,0 -1.30715,-1.07311 -2.62055,-2.38471 l -2.388,-2.38469 -2.055116,2.05513 -2.055099,2.05507 4.551885,4.55013 4.55192,4.55012 4.55128,-4.55128 4.55135,-4.55133 -7.04785,-7.04667 -7.0478,-7.04668 -14.498289,14.49824 -14.498246,14.49826 7.010308,7.0103 7.010256,7.01031 4.96068,-4.95906 4.960606,-4.95902 0.398693,0.41608 c 0.21925,0.22883 0.39861,0.47839 0.39861,0.55453 0,0.0762 -5.566221,5.70505 -12.369449,12.50859 l -12.369471,12.37013 7.010503,7.01048 7.010428,7.01051 7.010495,-7.01054 7.010525,-7.01047 -4.514528,-4.51453 -4.51452,-4.51452 -4.514273,4.5143 -4.514316,4.51432 2.017823,2.01779 2.017888,2.01787 2.459709,-2.44979 2.459722,-2.44977 0.4038,0.32754 c 0.222049,0.1801 0.403765,0.39169 0.403765,0.47019 0,0.18904 -5.612913,5.79253 -5.802251,5.79253 -0.0808,0 -1.434193,-1.28862 -3.007641,-2.86361 l -2.860804,-2.8636 5.432477,-5.43246 5.432526,-5.43252 12.478874,12.48034 12.47894,12.48035 7.04692,-7.04692 7.04692,-7.04688 -4.55032,-4.55214 z m -25.03288,-5.06508 -5.357168,-5.35871 2.934044,-2.93676 2.933964,-2.93677 2.904,2.89978 c 1.5972,1.59486 2.88618,2.98682 2.86441,3.09331 -0.022,0.10643 -0.22161,0.30364 -0.44405,0.43812 l -0.40438,0.2446 -2.4224,-2.41906 -2.42247,-2.41911 -2.055116,2.05513 -2.055099,2.05507 4.515785,4.51405 4.51578,4.51397 4.55005,-4.55187 4.5501,-4.55185 -12.0018,-12.00179 -12.001787,-12.00178 -4.551299,4.54959 -4.551363,4.54955 2.016494,2.02041 2.016569,2.02045 2.503174,-2.50014 2.503175,-2.50016 0.398339,0.41575 c 0.219068,0.22865 0.398287,0.47883 0.398287,0.55599 0,0.23337 -5.491925,5.64313 -5.728894,5.64313 -0.121152,0 -1.49373,-1.27478 -3.050262,-2.8328 l -2.83006,-2.83283 5.373076,-5.35252 c 2.955219,-2.94386 5.390226,-5.36815 5.41124,-5.38735 0.02079,-0.0189 5.631918,5.56374 12.468731,12.40643 l 12.43059,12.44132 4.58974,-4.58789 4.58978,-4.58787 -4.55012,-4.55188 -4.55012,-4.55189 -2.0551,2.05512 -2.05514,2.05511 2.38471,2.38796 c 1.31155,1.31338 2.38468,2.49262 2.38468,2.62055 0,0.27514 -0.50799,0.77116 -0.71373,0.69693 -0.20226,-0.073 -5.74641,-5.54961 -5.74641,-5.67639 0,-0.0573 1.30627,-1.40923 2.90276,-3.0043 l 2.90279,-2.90006 5.28252,5.29006 c 3.35898,3.36373 5.28253,5.39509 5.28253,5.57858 0,0.29842 -20.25507,20.70151 -20.55129,20.70151 -0.0836,0 -2.5628,-2.41141 -5.50926,-5.35869 z"
     id="path3363"
     inkscape:connector-curvature="0" />
</svg>
