<?xml version="1.0" encoding="UTF-8" standalone="no"?>
<!-- Created with Inkscape (http://www.inkscape.org/) -->

<svg
   xmlns:dc="http://purl.org/dc/elements/1.1/"
   xmlns:cc="http://creativecommons.org/ns#"
   xmlns:rdf="http://www.w3.org/1999/02/22-rdf-syntax-ns#"
   xmlns:svg="http://www.w3.org/2000/svg"
   xmlns="http://www.w3.org/2000/svg"
   xmlns:sodipodi="http://sodipodi.sourceforge.net/DTD/sodipodi-0.dtd"
   xmlns:inkscape="http://www.inkscape.org/namespaces/inkscape"
   id="svg3398"
   version="1.1"
   inkscape:version="0.91 r13725"
   width="36.599998"
   height="36.599998"
   viewBox="0 0 36.599998 36.599998"
   sodipodi:docname="ell1cm.svg">
  <metadata
     id="metadata3404">
    <rdf:RDF>
      <cc:Work
         rdf:about="">
        <dc:format>image/svg+xml</dc:format>
        <dc:type
           rdf:resource="http://purl.org/dc/dcmitype/StillImage" />
        <dc:title></dc:title>
      </cc:Work>
    </rdf:RDF>
  </metadata>
  <defs
     id="defs3402" />
  <sodipodi:namedview
     pagecolor="#ffffff"
     bordercolor="#666666"
     borderopacity="1"
     objecttolerance="10"
     gridtolerance="10"
     guidetolerance="10"
     inkscape:pageopacity="0"
     inkscape:pageshadow="2"
     inkscape:window-width="1440"
     inkscape:window-height="838"
     id="namedview3400"
     showgrid="false"
     inkscape:zoom="6.4480877"
     inkscape:cx="18.299999"
     inkscape:cy="18.299999"
     inkscape:window-x="-8"
     inkscape:window-y="-8"
     inkscape:window-maximized="1"
     inkscape:current-layer="svg3398" />
  <path
     style="fill:#000000"
     d="M 15.480634,35.926134 C 11.994307,35.409381 7.0118666,32.759393 4.9544658,30.327628 -5.0530844,18.499107 2.9956704,0.52499997 18.299999,0.52499997 c 7.070443,0 12.788532,3.56377293 15.91814,9.92090903 3.230482,6.562042 2.243561,14.189202 -2.572607,19.881719 -3.40974,4.030176 -10.403704,6.452446 -16.164898,5.598506 z M 25.51257,33.985411 C 31.866436,31.026607 35.393363,25.420696 35.380959,18.299999 35.372262,13.307133 34.000274,9.8061571 30.71717,6.3991593 26.935179,2.4744482 24.48465,1.5088988 18.299999,1.506585 12.223916,1.5043118 10.293749,2.2194815 6.3991593,5.9161104 2.4863996,9.6299851 1.5086052,12.105962 1.5086052,18.299999 c 0,6.184845 0.9646043,8.633987 4.8905541,12.417171 4.9946297,4.813002 12.8951037,6.16392 19.1134107,3.268241 z"
     id="path3408"
     inkscape:connector-curvature="0" />
</svg>
