<?xml version="1.0" encoding="UTF-8" standalone="no"?>
<!-- Created with Inkscape (http://www.inkscape.org/) -->

<svg
   xmlns:dc="http://purl.org/dc/elements/1.1/"
   xmlns:cc="http://creativecommons.org/ns#"
   xmlns:rdf="http://www.w3.org/1999/02/22-rdf-syntax-ns#"
   xmlns:svg="http://www.w3.org/2000/svg"
   xmlns="http://www.w3.org/2000/svg"
   xmlns:sodipodi="http://sodipodi.sourceforge.net/DTD/sodipodi-0.dtd"
   xmlns:inkscape="http://www.inkscape.org/namespaces/inkscape"
   id="svg3374"
   version="1.1"
   inkscape:version="0.91 r13725"
   width="709.79999"
   height="355.79999"
   viewBox="0 0 709.79999 355.79999"
   sodipodi:docname="ell1020cm.svg">
  <metadata
     id="metadata3380">
    <rdf:RDF>
      <cc:Work
         rdf:about="">
        <dc:format>image/svg+xml</dc:format>
        <dc:type
           rdf:resource="http://purl.org/dc/dcmitype/StillImage" />
        <dc:title></dc:title>
      </cc:Work>
    </rdf:RDF>
  </metadata>
  <defs
     id="defs3378" />
  <sodipodi:namedview
     pagecolor="#ffffff"
     bordercolor="#666666"
     borderopacity="1"
     objecttolerance="10"
     gridtolerance="10"
     guidetolerance="10"
     inkscape:pageopacity="0"
     inkscape:pageshadow="2"
     inkscape:window-width="1440"
     inkscape:window-height="838"
     id="namedview3376"
     showgrid="false"
     inkscape:zoom="0.75910873"
     inkscape:cx="302.78667"
     inkscape:cy="78.056267"
     inkscape:window-x="-8"
     inkscape:window-y="-8"
     inkscape:window-maximized="1"
     inkscape:current-layer="svg3374" />
  <path
     style="fill:#000000"
     d="M 343.2,355.37332 C 237.22628,353.92996 136.1606,327.60769 71.699999,284.66193 49.590261,269.93171 30.297028,251.6536 18.716789,234.46648 2.4255126,210.28733 -3.2514676,182.40975 2.9358538,156.97204 8.2321469,135.19759 18.473595,118.26877 38.376754,98.389251 52.307097,84.475456 66.256421,73.803166 84.599999,63.02497 144.68256,27.722063 227.61405,5.947428 320.1,1.1916888 c 16.19783,-0.83291219 53.40216,-0.83291219 69.59999,0 69.28544,3.5627409 132.98352,16.5408672 186.3,37.9575782 40.12026,16.115919 70.38078,34.647839 93.81048,57.45073 13.78026,13.411583 21.4932,23.525383 28.59816,37.500003 8.4912,16.70115 12.00012,33.17368 10.73994,50.41816 -2.64942,36.25403 -27.3978,71.17667 -70.94004,100.10398 -69.93696,46.46261 -177.8648,72.34669 -295.00853,70.75118 z m 46.19999,-1.37241 c 123.30634,-6.19278 230.45316,-43.55843 284.11272,-99.07958 17.45448,-18.05997 27.5958,-35.4137 32.85468,-56.22064 1.8741,-7.41478 1.92096,-7.92358 1.91598,-20.8007 -0.006,-12.51329 -0.0944,-13.55895 -1.7238,-20.09999 -4.13514,-16.60009 -11.4522,-31.10247 -23.15862,-45.9 C 677.78471,104.80079 663.73493,91.014915 655.30397,84.330838 595.92418,37.254281 498.57933,7.1177812 388.79999,1.8252124 372.23579,1.0266362 337.5642,1.0266362 321,1.8252124 215.19511,6.9261694 120.383,35.234647 60.850565,79.4992 26.682946,104.90408 6.5271719,134.25359 1.8479368,165.41493 c -0.8337898,5.55262 -0.8337898,19.41751 0,24.97013 3.5658421,23.74671 15.2015492,44.98987 36.2487602,66.1789 12.636268,12.72141 27.102536,23.88638 44.403302,34.27016 59.465241,35.69057 144.787951,58.49973 236.100001,63.11618 13.74479,0.69489 57.35082,0.72606 70.79999,0.0506 z"
     id="path3384"
     inkscape:connector-curvature="0" />
</svg>
