<?xml version="1.0" encoding="UTF-8" standalone="no"?>
<!-- Created with Inkscape (http://www.inkscape.org/) -->

<svg
   xmlns:dc="http://purl.org/dc/elements/1.1/"
   xmlns:cc="http://creativecommons.org/ns#"
   xmlns:rdf="http://www.w3.org/1999/02/22-rdf-syntax-ns#"
   xmlns:svg="http://www.w3.org/2000/svg"
   xmlns="http://www.w3.org/2000/svg"
   xmlns:sodipodi="http://sodipodi.sourceforge.net/DTD/sodipodi-0.dtd"
   xmlns:inkscape="http://www.inkscape.org/namespaces/inkscape"
   id="svg3386"
   version="1.1"
   inkscape:version="0.91 r13725"
   width="1418.4"
   height="710.40002"
   viewBox="0 0 1418.4 710.40002"
   sodipodi:docname="ell2040cm.svg">
  <metadata
     id="metadata3392">
    <rdf:RDF>
      <cc:Work
         rdf:about="">
        <dc:format>image/svg+xml</dc:format>
        <dc:type
           rdf:resource="http://purl.org/dc/dcmitype/StillImage" />
        <dc:title></dc:title>
      </cc:Work>
    </rdf:RDF>
  </metadata>
  <defs
     id="defs3390" />
  <sodipodi:namedview
     pagecolor="#ffffff"
     bordercolor="#666666"
     borderopacity="1"
     objecttolerance="10"
     gridtolerance="10"
     guidetolerance="10"
     inkscape:pageopacity="0"
     inkscape:pageshadow="2"
     inkscape:window-width="1440"
     inkscape:window-height="838"
     id="namedview3388"
     showgrid="false"
     inkscape:zoom="0.26861252"
     inkscape:cx="709.20001"
     inkscape:cy="355.20001"
     inkscape:window-x="-8"
     inkscape:window-y="-8"
     inkscape:window-maximized="1"
     inkscape:current-layer="svg3386" />
  <path
     style="fill:#000000"
     d="M 690.9,709.98518 C 658.26324,709.65902 614.65488,707.35442 579.61619,704.10416 417.62851,689.07776 271.41635,646.29902 165.6,582.97122 78.6213,530.9172 23.783242,468.30838 6.3019338,401.10001 -0.43708472,375.19128 -1.3847359,346.17144 3.6767919,320.71049 16.871518,254.3372 65.133528,192.85104 145.43905,140.10432 268.82166,59.063479 454.54665,8.8003178 658.8,1.1723286 c 22.01328,-0.82210202 78.78672,-0.82210202 100.8,0 204.87948,7.6513718 390.4621,57.9968544 514.2292,139.5018014 68.3535,45.01314 114.2202,97.51301 133.4295,152.72588 5.2102,14.97548 8.4319,29.26674 9.942,44.10232 0.855,8.39991 0.865,26.84122 0.019,35.39768 -4.278,43.27522 -24.8376,86.80027 -59.3759,125.7 -39.0856,44.02117 -96.7852,84.5087 -166.4679,116.80981 -136.2177,63.14304 -312.49412,96.45414 -500.47598,94.57536 z m 68.46174,-1.38828 c 218.5356,-7.87476 416.58836,-65.42754 538.73826,-156.55363 61.9321,-46.20249 101.276,-99.38181 114.2865,-154.47564 5.4912,-23.253 6.4243,-48.46425 2.6561,-71.76762 C 1402.9573,251.06158 1342.4423,179.41703 1243.5,122.70842 1119.4526,51.610859 946.72644,8.581634 758.16174,1.8018214 c -21.54426,-0.7746211 -76.37922,-0.7746211 -97.92348,0 C 462.4343,8.9138301 281.61795,56.112404 157.75795,132.96448 72.40962,185.92102 19.53892,249.61027 5.1496002,316.80001 c -3.1073386,14.50946 -3.6333203,20.11616 -3.6305678,38.7 0.00274,18.53059 0.452814,23.25295 3.6311655,38.1 C 15.707698,442.91732 48.236799,492.18621 98.1,534.38265 c 69.02275,58.4101 168.2416,105.32591 287.4,135.89753 83.96409,21.5421 178.1362,34.84236 270.9,38.26026 19.26234,0.70974 83.8494,0.74514 102.96174,0.0564 z"
     id="path3396"
     inkscape:connector-curvature="0" />
</svg>
