<svg id="shape" xmlns="http://www.w3.org/2000/svg" version="1.1" xmlns:xlink="http://www.w3.org/1999/xlink" xmlns:svgjs="http://svgjs.com/svgjs" width="1000" height="500"><ellipse id="SvgjsEllipse1013" rx="400" ry="225" cx="420" cy="245" stroke="#000000" stroke-width="1" fill="none"></ellipse><path id="SvgjsPath1035" d="M 28.0816411546915 200 L 40 200" stroke="#000000" stroke-width="1" fill="none"></path><path id="SvgjsPath1040" d="M 20.09877762837363 250 L 40 250" stroke="#000000" stroke-width="1" fill="none"></path><path id="SvgjsPath1045" d="M 32.13468036850797 300 L 40 300" stroke="#000000" stroke-width="1" fill="none"></path><path id="SvgjsPath1134" d="M 57.40305681117975 150 L 90 150" stroke="#000000" stroke-width="1" fill="none"></path><path id="SvgjsPath1139" d="M 50 200 L 90 200" stroke="#000000" stroke-width="1" fill="none"></path><path id="SvgjsPath1144" d="M 50 250 L 90 250" stroke="#000000" stroke-width="1" fill="none"></path><path id="SvgjsPath1149" d="M 50 300 L 90 300" stroke="#000000" stroke-width="1" fill="none"></path><path id="SvgjsPath1154" d="M 66.22668902875738 350 L 90 350" stroke="#000000" stroke-width="1" fill="none"></path><path id="SvgjsPath1235" d="M 114.13954606070662 100 L 140 100" stroke="#000000" stroke-width="1" fill="none"></path><path id="SvgjsPath1240" d="M 100 150 L 140 150" stroke="#000000" stroke-width="1" fill="none"></path><path id="SvgjsPath1245" d="M 100 200 L 140 200" stroke="#000000" stroke-width="1" fill="none"></path><path id="SvgjsPath1250" d="M 100 250 L 140 250" stroke="#000000" stroke-width="1" fill="none"></path><path id="SvgjsPath1255" d="M 100 300 L 140 300" stroke="#000000" stroke-width="1" fill="none"></path><path id="SvgjsPath1260" d="M 100 350 L 140 350" stroke="#000000" stroke-width="1" fill="none"></path><path id="SvgjsPath1265" d="M 130.05321901688725 400 L 140 400" stroke="#000000" stroke-width="1" fill="none"></path><path id="SvgjsPath1342" d="M 150 100 L 190 100" stroke="#000000" stroke-width="1" fill="none"></path><path id="SvgjsPath1347" d="M 150 150 L 190 150" stroke="#000000" stroke-width="1" fill="none"></path><path id="SvgjsPath1352" d="M 150 200 L 190 200" stroke="#000000" stroke-width="1" fill="none"></path><path id="SvgjsPath1357" d="M 150 250 L 190 250" stroke="#000000" stroke-width="1" fill="none"></path><path id="SvgjsPath1362" d="M 150 300 L 190 300" stroke="#000000" stroke-width="1" fill="none"></path><path id="SvgjsPath1367" d="M 150 350 L 190 350" stroke="#000000" stroke-width="1" fill="none"></path><path id="SvgjsPath1372" d="M 150 400 L 190 400" stroke="#000000" stroke-width="1" fill="none"></path><path id="SvgjsPath1445" d="M 220.44493937205655 50 L 240 50" stroke="#000000" stroke-width="1" fill="none"></path><path id="SvgjsPath1450" d="M 200 100 L 240 100" stroke="#000000" stroke-width="1" fill="none"></path><path id="SvgjsPath1455" d="M 200 150 L 240 150" stroke="#000000" stroke-width="1" fill="none"></path><path id="SvgjsPath1460" d="M 200 200 L 240 200" stroke="#000000" stroke-width="1" fill="none"></path><path id="SvgjsPath1465" d="M 200 250 L 240 250" stroke="#000000" stroke-width="1" fill="none"></path><path id="SvgjsPath1470" d="M 200 300 L 240 300" stroke="#000000" stroke-width="1" fill="none"></path><path id="SvgjsPath1475" d="M 200 350 L 240 350" stroke="#000000" stroke-width="1" fill="none"></path><path id="SvgjsPath1480" d="M 200 400 L 240 400" stroke="#000000" stroke-width="1" fill="none"></path><path id="SvgjsPath1553" d="M 250 50 L 290 50" stroke="#000000" stroke-width="1" fill="none"></path><path id="SvgjsPath1558" d="M 250 100 L 290 100" stroke="#000000" stroke-width="1" fill="none"></path><path id="SvgjsPath1563" d="M 250 150 L 290 150" stroke="#000000" stroke-width="1" fill="none"></path><path id="SvgjsPath1568" d="M 250 200 L 290 200" stroke="#000000" stroke-width="1" fill="none"></path><path id="SvgjsPath1573" d="M 250 250 L 290 250" stroke="#000000" stroke-width="1" fill="none"></path><path id="SvgjsPath1578" d="M 250 300 L 290 300" stroke="#000000" stroke-width="1" fill="none"></path><path id="SvgjsPath1583" d="M 250 350 L 290 350" stroke="#000000" stroke-width="1" fill="none"></path><path id="SvgjsPath1588" d="M 250 400 L 290 400" stroke="#000000" stroke-width="1" fill="none"></path><path id="SvgjsPath1593" d="M 255.1356711911875 450 L 290 450" stroke="#000000" stroke-width="1" fill="none"></path><path id="SvgjsPath1662" d="M 300 50 L 340 50" stroke="#000000" stroke-width="1" fill="none"></path><path id="SvgjsPath1667" d="M 300 100 L 340 100" stroke="#000000" stroke-width="1" fill="none"></path><path id="SvgjsPath1672" d="M 300 150 L 340 150" stroke="#000000" stroke-width="1" fill="none"></path><path id="SvgjsPath1677" d="M 300 200 L 340 200" stroke="#000000" stroke-width="1" fill="none"></path><path id="SvgjsPath1682" d="M 300 250 L 340 250" stroke="#000000" stroke-width="1" fill="none"></path><path id="SvgjsPath1687" d="M 300 300 L 340 300" stroke="#000000" stroke-width="1" fill="none"></path><path id="SvgjsPath1692" d="M 300 350 L 340 350" stroke="#000000" stroke-width="1" fill="none"></path><path id="SvgjsPath1697" d="M 300 400 L 340 400" stroke="#000000" stroke-width="1" fill="none"></path><path id="SvgjsPath1702" d="M 300 450 L 340 450" stroke="#000000" stroke-width="1" fill="none"></path><path id="SvgjsPath1771" d="M 350 50 L 390 50" stroke="#000000" stroke-width="1" fill="none"></path><path id="SvgjsPath1776" d="M 350 100 L 390 100" stroke="#000000" stroke-width="1" fill="none"></path><path id="SvgjsPath1781" d="M 350 150 L 390 150" stroke="#000000" stroke-width="1" fill="none"></path><path id="SvgjsPath1786" d="M 350 200 L 390 200" stroke="#000000" stroke-width="1" fill="none"></path><path id="SvgjsPath1791" d="M 350 250 L 390 250" stroke="#000000" stroke-width="1" fill="none"></path><path id="SvgjsPath1796" d="M 350 300 L 390 300" stroke="#000000" stroke-width="1" fill="none"></path><path id="SvgjsPath1801" d="M 350 350 L 390 350" stroke="#000000" stroke-width="1" fill="none"></path><path id="SvgjsPath1806" d="M 350 400 L 390 400" stroke="#000000" stroke-width="1" fill="none"></path><path id="SvgjsPath1811" d="M 350 450 L 390 450" stroke="#000000" stroke-width="1" fill="none"></path><path id="SvgjsPath1880" d="M 400 50 L 440 50" stroke="#000000" stroke-width="1" fill="none"></path><path id="SvgjsPath1885" d="M 400 100 L 440 100" stroke="#000000" stroke-width="1" fill="none"></path><path id="SvgjsPath1890" d="M 400 150 L 440 150" stroke="#000000" stroke-width="1" fill="none"></path><path id="SvgjsPath1895" d="M 400 200 L 440 200" stroke="#000000" stroke-width="1" fill="none"></path><path id="SvgjsPath1900" d="M 400 250 L 440 250" stroke="#000000" stroke-width="1" fill="none"></path><path id="SvgjsPath1905" d="M 400 300 L 440 300" stroke="#000000" stroke-width="1" fill="none"></path><path id="SvgjsPath1910" d="M 400 350 L 440 350" stroke="#000000" stroke-width="1" fill="none"></path><path id="SvgjsPath1915" d="M 400 400 L 440 400" stroke="#000000" stroke-width="1" fill="none"></path><path id="SvgjsPath1920" d="M 400 450 L 440 450" stroke="#000000" stroke-width="1" fill="none"></path><path id="SvgjsPath1989" d="M 450 50 L 490 50" stroke="#000000" stroke-width="1" fill="none"></path><path id="SvgjsPath1994" d="M 450 100 L 490 100" stroke="#000000" stroke-width="1" fill="none"></path><path id="SvgjsPath1999" d="M 450 150 L 490 150" stroke="#000000" stroke-width="1" fill="none"></path><path id="SvgjsPath2004" d="M 450 200 L 490 200" stroke="#000000" stroke-width="1" fill="none"></path><path id="SvgjsPath2009" d="M 450 250 L 490 250" stroke="#000000" stroke-width="1" fill="none"></path><path id="SvgjsPath2014" d="M 450 300 L 490 300" stroke="#000000" stroke-width="1" fill="none"></path><path id="SvgjsPath2019" d="M 450 350 L 490 350" stroke="#000000" stroke-width="1" fill="none"></path><path id="SvgjsPath2024" d="M 450 400 L 490 400" stroke="#000000" stroke-width="1" fill="none"></path><path id="SvgjsPath2029" d="M 450 450 L 490 450" stroke="#000000" stroke-width="1" fill="none"></path><path id="SvgjsPath2098" d="M 500 50 L 540 50" stroke="#000000" stroke-width="1" fill="none"></path><path id="SvgjsPath2103" d="M 500 100 L 540 100" stroke="#000000" stroke-width="1" fill="none"></path><path id="SvgjsPath2108" d="M 500 150 L 540 150" stroke="#000000" stroke-width="1" fill="none"></path><path id="SvgjsPath2113" d="M 500 200 L 540 200" stroke="#000000" stroke-width="1" fill="none"></path><path id="SvgjsPath2118" d="M 500 250 L 540 250" stroke="#000000" stroke-width="1" fill="none"></path><path id="SvgjsPath2123" d="M 500 300 L 540 300" stroke="#000000" stroke-width="1" fill="none"></path><path id="SvgjsPath2128" d="M 500 350 L 540 350" stroke="#000000" stroke-width="1" fill="none"></path><path id="SvgjsPath2133" d="M 500 400 L 540 400" stroke="#000000" stroke-width="1" fill="none"></path><path id="SvgjsPath2138" d="M 500 450 L 540 450" stroke="#000000" stroke-width="1" fill="none"></path><path id="SvgjsPath2207" d="M 550 50 L 590 50" stroke="#000000" stroke-width="1" fill="none"></path><path id="SvgjsPath2212" d="M 550 100 L 590 100" stroke="#000000" stroke-width="1" fill="none"></path><path id="SvgjsPath2217" d="M 550 150 L 590 150" stroke="#000000" stroke-width="1" fill="none"></path><path id="SvgjsPath2222" d="M 550 200 L 590 200" stroke="#000000" stroke-width="1" fill="none"></path><path id="SvgjsPath2227" d="M 550 250 L 590 250" stroke="#000000" stroke-width="1" fill="none"></path><path id="SvgjsPath2232" d="M 550 300 L 590 300" stroke="#000000" stroke-width="1" fill="none"></path><path id="SvgjsPath2237" d="M 550 350 L 590 350" stroke="#000000" stroke-width="1" fill="none"></path><path id="SvgjsPath2242" d="M 550 400 L 590 400" stroke="#000000" stroke-width="1" fill="none"></path><path id="SvgjsPath2247" d="M 550 450 L 584.8643288088125 450" stroke="#000000" stroke-width="1" fill="none"></path><path id="SvgjsPath2316" d="M 600 50 L 619.5550606279435 50" stroke="#000000" stroke-width="1" fill="none"></path><path id="SvgjsPath2321" d="M 600 100 L 640 100" stroke="#000000" stroke-width="1" fill="none"></path><path id="SvgjsPath2326" d="M 600 150 L 640 150" stroke="#000000" stroke-width="1" fill="none"></path><path id="SvgjsPath2331" d="M 600 200 L 640 200" stroke="#000000" stroke-width="1" fill="none"></path><path id="SvgjsPath2336" d="M 600 250 L 640 250" stroke="#000000" stroke-width="1" fill="none"></path><path id="SvgjsPath2341" d="M 600 300 L 640 300" stroke="#000000" stroke-width="1" fill="none"></path><path id="SvgjsPath2346" d="M 600 350 L 640 350" stroke="#000000" stroke-width="1" fill="none"></path><path id="SvgjsPath2351" d="M 600 400 L 640 400" stroke="#000000" stroke-width="1" fill="none"></path><path id="SvgjsPath2428" d="M 650 100 L 690 100" stroke="#000000" stroke-width="1" fill="none"></path><path id="SvgjsPath2433" d="M 650 150 L 690 150" stroke="#000000" stroke-width="1" fill="none"></path><path id="SvgjsPath2438" d="M 650 200 L 690 200" stroke="#000000" stroke-width="1" fill="none"></path><path id="SvgjsPath2443" d="M 650 250 L 690 250" stroke="#000000" stroke-width="1" fill="none"></path><path id="SvgjsPath2448" d="M 650 300 L 690 300" stroke="#000000" stroke-width="1" fill="none"></path><path id="SvgjsPath2453" d="M 650 350 L 690 350" stroke="#000000" stroke-width="1" fill="none"></path><path id="SvgjsPath2458" d="M 650 400 L 690 400" stroke="#000000" stroke-width="1" fill="none"></path><path id="SvgjsPath2535" d="M 700 100 L 725.8604539392935 100" stroke="#000000" stroke-width="1" fill="none"></path><path id="SvgjsPath2540" d="M 700 150 L 740 150" stroke="#000000" stroke-width="1" fill="none"></path><path id="SvgjsPath2545" d="M 700 200 L 740 200" stroke="#000000" stroke-width="1" fill="none"></path><path id="SvgjsPath2550" d="M 700 250 L 740 250" stroke="#000000" stroke-width="1" fill="none"></path><path id="SvgjsPath2555" d="M 700 300 L 740 300" stroke="#000000" stroke-width="1" fill="none"></path><path id="SvgjsPath2560" d="M 700 350 L 740 350" stroke="#000000" stroke-width="1" fill="none"></path><path id="SvgjsPath2565" d="M 700 400 L 709.9467809831128 400" stroke="#000000" stroke-width="1" fill="none"></path><path id="SvgjsPath2646" d="M 750 150 L 782.5969431888202 150" stroke="#000000" stroke-width="1" fill="none"></path><path id="SvgjsPath2651" d="M 750 200 L 790 200" stroke="#000000" stroke-width="1" fill="none"></path><path id="SvgjsPath2656" d="M 750 250 L 790 250" stroke="#000000" stroke-width="1" fill="none"></path><path id="SvgjsPath2661" d="M 750 300 L 790 300" stroke="#000000" stroke-width="1" fill="none"></path><path id="SvgjsPath2666" d="M 750 350 L 773.7733109712427 350" stroke="#000000" stroke-width="1" fill="none"></path><path id="SvgjsPath2755" d="M 800 200 L 811.9183588453085 200" stroke="#000000" stroke-width="1" fill="none"></path><path id="SvgjsPath2760" d="M 800 250 L 819.9012223716264 250" stroke="#000000" stroke-width="1" fill="none"></path><path id="SvgjsPath2765" d="M 800 300 L 807.8653196314921 300" stroke="#000000" stroke-width="1" fill="none"></path><path id="SvgjsPath3655" d="M 49.64148167111715 160 L 65 160" stroke="#000000" stroke-width="1" fill="none"></path><path id="SvgjsPath3660" d="M 25 210 L 65 210" stroke="#000000" stroke-width="1" fill="none"></path><path id="SvgjsPath3665" d="M 25 260 L 65 260" stroke="#000000" stroke-width="1" fill="none"></path><path id="SvgjsPath3670" d="M 37.05494704821309 310 L 65 310" stroke="#000000" stroke-width="1" fill="none"></path><path id="SvgjsPath3755" d="M 100.00000000000001 110 L 115 110" stroke="#000000" stroke-width="1" fill="none"></path><path id="SvgjsPath3760" d="M 75 160 L 115 160" stroke="#000000" stroke-width="1" fill="none"></path><path id="SvgjsPath3765" d="M 75 210 L 115 210" stroke="#000000" stroke-width="1" fill="none"></path><path id="SvgjsPath3770" d="M 75 260 L 115 260" stroke="#000000" stroke-width="1" fill="none"></path><path id="SvgjsPath3775" d="M 75 310 L 115 310" stroke="#000000" stroke-width="1" fill="none"></path><path id="SvgjsPath3780" d="M 76.1941403410895 360 L 115 360" stroke="#000000" stroke-width="1" fill="none"></path><path id="SvgjsPath3861" d="M 125 110 L 165 110" stroke="#000000" stroke-width="1" fill="none"></path><path id="SvgjsPath3866" d="M 125 160 L 165 160" stroke="#000000" stroke-width="1" fill="none"></path><path id="SvgjsPath3871" d="M 125 210 L 165 210" stroke="#000000" stroke-width="1" fill="none"></path><path id="SvgjsPath3876" d="M 125 260 L 165 260" stroke="#000000" stroke-width="1" fill="none"></path><path id="SvgjsPath3881" d="M 125 310 L 165 310" stroke="#000000" stroke-width="1" fill="none"></path><path id="SvgjsPath3886" d="M 125 360 L 165 360" stroke="#000000" stroke-width="1" fill="none"></path><path id="SvgjsPath3891" d="M 148.05229260838485 410 L 165 410" stroke="#000000" stroke-width="1" fill="none"></path><path id="SvgjsPath3964" d="M 192.33336044683205 60 L 215 60" stroke="#000000" stroke-width="1" fill="none"></path><path id="SvgjsPath3969" d="M 175 110 L 215 110" stroke="#000000" stroke-width="1" fill="none"></path><path id="SvgjsPath3974" d="M 175 160 L 215 160" stroke="#000000" stroke-width="1" fill="none"></path><path id="SvgjsPath3979" d="M 175 210 L 215 210" stroke="#000000" stroke-width="1" fill="none"></path><path id="SvgjsPath3984" d="M 175 260 L 215 260" stroke="#000000" stroke-width="1" fill="none"></path><path id="SvgjsPath3989" d="M 175 310 L 215 310" stroke="#000000" stroke-width="1" fill="none"></path><path id="SvgjsPath3994" d="M 175 360 L 215 360" stroke="#000000" stroke-width="1" fill="none"></path><path id="SvgjsPath3999" d="M 175 410 L 215 410" stroke="#000000" stroke-width="1" fill="none"></path><path id="SvgjsPath4072" d="M 225 60 L 265 60" stroke="#000000" stroke-width="1" fill="none"></path><path id="SvgjsPath4077" d="M 225 110 L 265 110" stroke="#000000" stroke-width="1" fill="none"></path><path id="SvgjsPath4082" d="M 225 160 L 265 160" stroke="#000000" stroke-width="1" fill="none"></path><path id="SvgjsPath4087" d="M 225 210 L 265 210" stroke="#000000" stroke-width="1" fill="none"></path><path id="SvgjsPath4092" d="M 225 260 L 265 260" stroke="#000000" stroke-width="1" fill="none"></path><path id="SvgjsPath4097" d="M 225 310 L 265 310" stroke="#000000" stroke-width="1" fill="none"></path><path id="SvgjsPath4102" d="M 225 360 L 265 360" stroke="#000000" stroke-width="1" fill="none"></path><path id="SvgjsPath4107" d="M 225 410 L 265 410" stroke="#000000" stroke-width="1" fill="none"></path><path id="SvgjsPath4180" d="M 275 60 L 315 60" stroke="#000000" stroke-width="1" fill="none"></path><path id="SvgjsPath4185" d="M 275 110 L 315 110" stroke="#000000" stroke-width="1" fill="none"></path><path id="SvgjsPath4190" d="M 275 160 L 315 160" stroke="#000000" stroke-width="1" fill="none"></path><path id="SvgjsPath4195" d="M 275 210 L 315 210" stroke="#000000" stroke-width="1" fill="none"></path><path id="SvgjsPath4200" d="M 275 260 L 315 260" stroke="#000000" stroke-width="1" fill="none"></path><path id="SvgjsPath4205" d="M 275 310 L 315 310" stroke="#000000" stroke-width="1" fill="none"></path><path id="SvgjsPath4210" d="M 275 360 L 315 360" stroke="#000000" stroke-width="1" fill="none"></path><path id="SvgjsPath4215" d="M 275 410 L 315 410" stroke="#000000" stroke-width="1" fill="none"></path><path id="SvgjsPath4220" d="M 302.0755630095857 460 L 315 460" stroke="#000000" stroke-width="1" fill="none"></path><path id="SvgjsPath4289" d="M 325 60 L 365 60" stroke="#000000" stroke-width="1" fill="none"></path><path id="SvgjsPath4294" d="M 325 110 L 365 110" stroke="#000000" stroke-width="1" fill="none"></path><path id="SvgjsPath4299" d="M 325 160 L 365 160" stroke="#000000" stroke-width="1" fill="none"></path><path id="SvgjsPath4304" d="M 325 210 L 365 210" stroke="#000000" stroke-width="1" fill="none"></path><path id="SvgjsPath4309" d="M 325 260 L 365 260" stroke="#000000" stroke-width="1" fill="none"></path><path id="SvgjsPath4314" d="M 325 310 L 365 310" stroke="#000000" stroke-width="1" fill="none"></path><path id="SvgjsPath4319" d="M 325 360 L 365 360" stroke="#000000" stroke-width="1" fill="none"></path><path id="SvgjsPath4324" d="M 325 410 L 365 410" stroke="#000000" stroke-width="1" fill="none"></path><path id="SvgjsPath4329" d="M 325 460 L 365 460" stroke="#000000" stroke-width="1" fill="none"></path><path id="SvgjsPath4398" d="M 375 60 L 415 60" stroke="#000000" stroke-width="1" fill="none"></path><path id="SvgjsPath4403" d="M 375 110 L 415 110" stroke="#000000" stroke-width="1" fill="none"></path><path id="SvgjsPath4408" d="M 375 160 L 415 160" stroke="#000000" stroke-width="1" fill="none"></path><path id="SvgjsPath4413" d="M 375 210 L 415 210" stroke="#000000" stroke-width="1" fill="none"></path><path id="SvgjsPath4418" d="M 375 260 L 415 260" stroke="#000000" stroke-width="1" fill="none"></path><path id="SvgjsPath4423" d="M 375 310 L 415 310" stroke="#000000" stroke-width="1" fill="none"></path><path id="SvgjsPath4428" d="M 375 360 L 415 360" stroke="#000000" stroke-width="1" fill="none"></path><path id="SvgjsPath4433" d="M 375 410 L 415 410" stroke="#000000" stroke-width="1" fill="none"></path><path id="SvgjsPath4438" d="M 375 460 L 415 460" stroke="#000000" stroke-width="1" fill="none"></path><path id="SvgjsPath4507" d="M 425 60 L 465 60" stroke="#000000" stroke-width="1" fill="none"></path><path id="SvgjsPath4512" d="M 425 110 L 465 110" stroke="#000000" stroke-width="1" fill="none"></path><path id="SvgjsPath4517" d="M 425 160 L 465 160" stroke="#000000" stroke-width="1" fill="none"></path><path id="SvgjsPath4522" d="M 425 210 L 465 210" stroke="#000000" stroke-width="1" fill="none"></path><path id="SvgjsPath4527" d="M 425 260 L 465 260" stroke="#000000" stroke-width="1" fill="none"></path><path id="SvgjsPath4532" d="M 425 310 L 465 310" stroke="#000000" stroke-width="1" fill="none"></path><path id="SvgjsPath4537" d="M 425 360 L 465 360" stroke="#000000" stroke-width="1" fill="none"></path><path id="SvgjsPath4542" d="M 425 410 L 465 410" stroke="#000000" stroke-width="1" fill="none"></path><path id="SvgjsPath4547" d="M 425 460 L 465 460" stroke="#000000" stroke-width="1" fill="none"></path><path id="SvgjsPath4616" d="M 475 60 L 515 60" stroke="#000000" stroke-width="1" fill="none"></path><path id="SvgjsPath4621" d="M 475 110 L 515 110" stroke="#000000" stroke-width="1" fill="none"></path><path id="SvgjsPath4626" d="M 475 160 L 515 160" stroke="#000000" stroke-width="1" fill="none"></path><path id="SvgjsPath4631" d="M 475 210 L 515 210" stroke="#000000" stroke-width="1" fill="none"></path><path id="SvgjsPath4636" d="M 475 260 L 515 260" stroke="#000000" stroke-width="1" fill="none"></path><path id="SvgjsPath4641" d="M 475 310 L 515 310" stroke="#000000" stroke-width="1" fill="none"></path><path id="SvgjsPath4646" d="M 475 360 L 515 360" stroke="#000000" stroke-width="1" fill="none"></path><path id="SvgjsPath4651" d="M 475 410 L 515 410" stroke="#000000" stroke-width="1" fill="none"></path><path id="SvgjsPath4656" d="M 475 460 L 515 460" stroke="#000000" stroke-width="1" fill="none"></path><path id="SvgjsPath4725" d="M 525 60 L 565 60" stroke="#000000" stroke-width="1" fill="none"></path><path id="SvgjsPath4730" d="M 525 110 L 565 110" stroke="#000000" stroke-width="1" fill="none"></path><path id="SvgjsPath4735" d="M 525 160 L 565 160" stroke="#000000" stroke-width="1" fill="none"></path><path id="SvgjsPath4740" d="M 525 210 L 565 210" stroke="#000000" stroke-width="1" fill="none"></path><path id="SvgjsPath4745" d="M 525 260 L 565 260" stroke="#000000" stroke-width="1" fill="none"></path><path id="SvgjsPath4750" d="M 525 310 L 565 310" stroke="#000000" stroke-width="1" fill="none"></path><path id="SvgjsPath4755" d="M 525 360 L 565 360" stroke="#000000" stroke-width="1" fill="none"></path><path id="SvgjsPath4760" d="M 525 410 L 565 410" stroke="#000000" stroke-width="1" fill="none"></path><path id="SvgjsPath4765" d="M 525 460 L 537.9244369904143 460" stroke="#000000" stroke-width="1" fill="none"></path><path id="SvgjsPath4834" d="M 575 60 L 615 60" stroke="#000000" stroke-width="1" fill="none"></path><path id="SvgjsPath4839" d="M 575 110 L 615 110" stroke="#000000" stroke-width="1" fill="none"></path><path id="SvgjsPath4844" d="M 575 160 L 615 160" stroke="#000000" stroke-width="1" fill="none"></path><path id="SvgjsPath4849" d="M 575 210 L 615 210" stroke="#000000" stroke-width="1" fill="none"></path><path id="SvgjsPath4854" d="M 575 260 L 615 260" stroke="#000000" stroke-width="1" fill="none"></path><path id="SvgjsPath4859" d="M 575 310 L 615 310" stroke="#000000" stroke-width="1" fill="none"></path><path id="SvgjsPath4864" d="M 575 360 L 615 360" stroke="#000000" stroke-width="1" fill="none"></path><path id="SvgjsPath4869" d="M 575 410 L 615 410" stroke="#000000" stroke-width="1" fill="none"></path><path id="SvgjsPath4942" d="M 625 60 L 647.666639553168 60" stroke="#000000" stroke-width="1" fill="none"></path><path id="SvgjsPath4947" d="M 625 110 L 665 110" stroke="#000000" stroke-width="1" fill="none"></path><path id="SvgjsPath4952" d="M 625 160 L 665 160" stroke="#000000" stroke-width="1" fill="none"></path><path id="SvgjsPath4957" d="M 625 210 L 665 210" stroke="#000000" stroke-width="1" fill="none"></path><path id="SvgjsPath4962" d="M 625 260 L 665 260" stroke="#000000" stroke-width="1" fill="none"></path><path id="SvgjsPath4967" d="M 625 310 L 665 310" stroke="#000000" stroke-width="1" fill="none"></path><path id="SvgjsPath4972" d="M 625 360 L 665 360" stroke="#000000" stroke-width="1" fill="none"></path><path id="SvgjsPath4977" d="M 625 410 L 665 410" stroke="#000000" stroke-width="1" fill="none"></path><path id="SvgjsPath5054" d="M 675 110 L 715 110" stroke="#000000" stroke-width="1" fill="none"></path><path id="SvgjsPath5059" d="M 675 160 L 715 160" stroke="#000000" stroke-width="1" fill="none"></path><path id="SvgjsPath5064" d="M 675 210 L 715 210" stroke="#000000" stroke-width="1" fill="none"></path><path id="SvgjsPath5069" d="M 675 260 L 715 260" stroke="#000000" stroke-width="1" fill="none"></path><path id="SvgjsPath5074" d="M 675 310 L 715 310" stroke="#000000" stroke-width="1" fill="none"></path><path id="SvgjsPath5079" d="M 675 360 L 715 360" stroke="#000000" stroke-width="1" fill="none"></path><path id="SvgjsPath5084" d="M 675 410 L 691.9477073916153 410" stroke="#000000" stroke-width="1" fill="none"></path><path id="SvgjsPath5161" d="M 725 110 L 740.0000000000001 110" stroke="#000000" stroke-width="1" fill="none"></path><path id="SvgjsPath5166" d="M 725 160 L 765 160" stroke="#000000" stroke-width="1" fill="none"></path><path id="SvgjsPath5171" d="M 725 210 L 765 210" stroke="#000000" stroke-width="1" fill="none"></path><path id="SvgjsPath5176" d="M 725 260 L 765 260" stroke="#000000" stroke-width="1" fill="none"></path><path id="SvgjsPath5181" d="M 725 310 L 765 310" stroke="#000000" stroke-width="1" fill="none"></path><path id="SvgjsPath5186" d="M 725 360 L 763.8058596589105 360" stroke="#000000" stroke-width="1" fill="none"></path><path id="SvgjsPath5271" d="M 775 160 L 790.3585183288828 160" stroke="#000000" stroke-width="1" fill="none"></path><path id="SvgjsPath5276" d="M 775 210 L 815 210" stroke="#000000" stroke-width="1" fill="none"></path><path id="SvgjsPath5281" d="M 775 260 L 815 260" stroke="#000000" stroke-width="1" fill="none"></path><path id="SvgjsPath5286" d="M 775 310 L 802.945052951787 310" stroke="#000000" stroke-width="1" fill="none"></path></svg>