<?xml version="1.0" encoding="UTF-8" standalone="no"?>
<!-- Created with Inkscape (http://www.inkscape.org/) -->

<svg
   xmlns:dc="http://purl.org/dc/elements/1.1/"
   xmlns:cc="http://creativecommons.org/ns#"
   xmlns:rdf="http://www.w3.org/1999/02/22-rdf-syntax-ns#"
   xmlns:svg="http://www.w3.org/2000/svg"
   xmlns="http://www.w3.org/2000/svg"
   xmlns:sodipodi="http://sodipodi.sourceforge.net/DTD/sodipodi-0.dtd"
   xmlns:inkscape="http://www.inkscape.org/namespaces/inkscape"
   id="svg3341"
   version="1.1"
   inkscape:version="0.91 r13725"
   width="126"
   height="156"
   viewBox="0 0 126 156"
   sodipodi:docname="guitar body.svg">
  <metadata
     id="metadata3347">
    <rdf:RDF>
      <cc:Work
         rdf:about="">
        <dc:format>image/svg+xml</dc:format>
        <dc:type
           rdf:resource="http://purl.org/dc/dcmitype/StillImage" />
        <dc:title></dc:title>
      </cc:Work>
    </rdf:RDF>
  </metadata>
  <defs
     id="defs3345" />
  <sodipodi:namedview
     pagecolor="#ffffff"
     bordercolor="#666666"
     borderopacity="1"
     objecttolerance="10"
     gridtolerance="10"
     guidetolerance="10"
     inkscape:pageopacity="0"
     inkscape:pageshadow="2"
     inkscape:window-width="1440"
     inkscape:window-height="838"
     id="namedview3343"
     showgrid="false"
     inkscape:zoom="1.5128205"
     inkscape:cx="63"
     inkscape:cy="78"
     inkscape:window-x="-8"
     inkscape:window-y="-8"
     inkscape:window-maximized="1"
     inkscape:current-layer="svg3341" />
  <path
     style="fill:#000000"
     d="M 48.16303,146.04247 C 28.038005,143.30717 14.962336,133.69964 11.086537,118.8 9.6763338,113.37879 10.138481,100.57742 11.974631,94.2 13.759843,87.999498 18.486517,78.295152 22.484755,72.62163 30.287408,61.549632 31.293961,56.433445 27.507781,47.090224 24.675838,40.101791 23.785765,35.414652 24.111633,29.206059 24.323702,25.165624 24.684248,23.66167 25.964535,21.477026 29.333196,15.72884 36.441844,11.587588 45.847094,9.8941338 53.52406,8.5118646 78.21231,8.8892568 83.7,10.472765 92.21985,12.931224 98.052678,17.08595 100.58505,22.5 c 1.16239,2.485114 1.40301,3.978283 1.40197,8.7 -0.001,6.186325 -0.6565,9.257268 -3.466624,16.249908 -2.677554,6.662759 -2.849238,8.252249 -1.40496,13.007238 0.851058,2.801904 2.944684,6.713592 6.643984,12.413472 8.75061,13.482912 12.19268,23.424714 12.26644,35.429382 0.0697,11.34607 -2.52765,18.24127 -9.50373,25.22944 -7.050302,7.06251 -16.734032,11.11284 -30.62213,12.80805 -7.171968,0.87542 -20.140258,0.73749 -27.73697,-0.29502 z m 25.382762,-0.3011 C 93.018162,143.78459 106.19062,136.5652 111.75525,124.8 114.39731,119.21393 115.2,115.44131 115.2,108.60969 115.2,97.07271 111.31524,85.86909 103.05553,73.58514 98.189316,66.348048 95.80743,61.096182 95.538432,57.010574 95.313738,53.59784 95.64909,52.269705 99.025584,43.2 101.45813,36.665844 102.06391,29.308498 100.54571,24.737632 98.405322,18.293509 91.571532,13.295053 81.752148,10.991404 74.899866,9.3838446 50.201039,9.4018452 44.1,11.018846 28.790588,15.076405 22.854217,23.022892 25.16315,36.367906 25.556361,38.640557 26.873011,42.93 28.089039,45.9 30.00274,50.57398 30.3,51.945352 30.3,56.1 c 0,5.67003 -1.037288,8.161584 -7.288282,17.506368 -6.511842,9.734736 -9.543389,16.78521 -11.354177,26.406442 -3.3560964,17.83188 3.190766,32.17752 18.042459,39.53503 11.318122,5.60699 27.265549,7.85967 43.845792,6.19353 z M 52.388788,96.013584 C 51.665589,94.09761 49.998312,93.58506 49.416976,95.1 49.147946,95.801082 47.958585,96 44.035807,96 39.083234,96 39,95.97555 39,94.52088 c 0,-2.07957 3.269204,-5.572434 5.89936,-6.302958 1.246501,-0.346218 9.337498,-0.612678 18.661208,-0.614574 15.505314,-0.003 16.611786,0.06986 19.066362,1.258098 C 85.25922,90.135714 87,92.48781 87,94.770204 87,95.91225 86.640672,96 81.964194,96 77.936316,96 76.855854,95.810988 76.566006,95.055654 76.029102,93.656502 74.205708,94.28106 73.799802,96.00315 L 73.446984,97.5 63.26016,97.663584 53.073338,97.827162 52.388788,96.013584 Z M 72.689904,95.4 c 0.34512,-0.99 0.848988,-1.8 1.11972,-1.8 0.270726,0 0.902688,-0.157506 1.404354,-0.350016 0.521904,-0.200274 1.370004,0.184758 1.982418,0.9 C 78.087474,95.19069 78.954402,95.4 82.373778,95.4 c 3.973974,0 4.094532,-0.04374 3.719724,-1.35 -0.58674,-2.044854 -3.551568,-4.511676 -6.317736,-5.256528 -1.604688,-0.432096 -7.977246,-0.600216 -18.173496,-0.479454 -13.758725,0.16296 -15.946915,0.319548 -17.678804,1.265112 -2.022983,1.104486 -4.503292,4.444494 -3.956961,5.32848 0.167374,0.270816 1.919314,0.49239 3.893201,0.49239 2.673376,0 4.011952,-0.312786 5.247352,-1.22616 2.017991,-1.491966 3.401088,-1.074306 4.219804,1.274262 L 53.937577,97.2 63,97.2 l 9.062424,0 0.62748,-1.8 z M 56.244314,69.371616 C 52.297248,67.91205 48.499332,64.445742 46.304842,60.3 c -1.357499,-2.564533 -1.588007,-3.740293 -1.588007,-8.1 0,-4.359707 0.230508,-5.535467 1.588007,-8.1 C 48.208034,40.504564 50.942901,37.801852 54.6,35.902369 56.844812,34.736423 58.210376,34.5 62.7,34.5 c 4.86423,0 5.718816,0.176588 8.61333,1.779827 6.080274,3.36779 9.269112,8.836148 9.283758,15.920173 0.01506,7.275432 -3.418956,13.074222 -9.599226,16.20966 -3.539712,1.7958 -11.155727,2.292378 -14.753548,0.961956 z m 12.38773,-0.997722 c 3.753228,-1.404264 7.500954,-4.762122 9.485934,-8.499135 1.937028,-3.646747 1.96575,-11.650627 0.05472,-15.242298 C 75.292542,39.219482 68.3379,34.8 62.7,34.8 c -5.397672,0 -11.426812,3.346616 -14.565242,8.084782 -5.193964,7.841455 -3.031408,18.275906 4.884068,23.565896 5.073071,3.390384 10.052508,4.003746 15.613218,1.923216 z M 57.934695,65.74128 c -3.205072,-1.191288 -5.099908,-2.681016 -7.216543,-5.673678 -1.462583,-2.067916 -1.823553,-3.257408 -2.014612,-6.638674 -0.299354,-5.297814 0.619063,-7.98311 3.827799,-11.191846 4.687965,-4.687965 11.057309,-5.491295 17.229011,-2.173002 9.15267,4.921046 9.340104,18.75114 0.329622,24.32189 -3.40824,2.107158 -8.580816,2.683896 -12.155277,1.35531 z M 68.48553,64.135134 c 4.857186,-2.430768 8.42028,-9.108451 7.394736,-13.858648 -2.349384,-10.882103 -14.53662,-14.959873 -22.403533,-7.496077 -4.418452,4.192042 -5.426033,9.877633 -2.714704,15.318561 3.379137,6.781046 11.029037,9.386402 17.723501,6.036164 z"
     id="path3351"
     inkscape:connector-curvature="0" />
</svg>
