<svg id="shape" xmlns="http://www.w3.org/2000/svg" version="1.1" xmlns:xlink="http://www.w3.org/1999/xlink" xmlns:svgjs="http://svgjs.com/svgjs" width="1000" height="500"><defs id="SvgjsDefs1001"></defs><path id="SvgjsPath1007" d="M 200 0 L 500 0 C 400 0 400 100 400 200 C 500 200 600 200 600 100 L 600 400 C 600 300 500 300 400 300 C 400 400 400 500 500 500 L 200 500 C 300 500 300 400 300 300 C 200 300 100 300 100 400 L 100 100 C 100 200 200 200 300 200 C 300 100 300 0 200 0 " stroke="#000000" stroke-width="1" fill="none"></path></svg>