<svg id="shape" xmlns="http://www.w3.org/2000/svg" version="1.1" xmlns:xlink="http://www.w3.org/1999/xlink" xmlns:svgjs="http://svgjs.com/svgjs" width="1000" height="500"><path id="SvgjsPath1048513" d="m 0.60000002,177.6 0,-176.99999998 176.99999998,0 177.00001,0 0,176.99999998 0,177.00001 -177.00001,0 -176.99999998,0 0,-177.00001 z m 353.40000998,0 0,-176.4 -176.40001,0 -176.4,0 0,176.4 0,176.40001 176.4,0 176.40001,0 0,-176.40001 z" stroke="#000000" stroke-width="1" fill="none"></path><path id="SvgjsPath1048667" d="M 17.480634000000002 37.926134 C 13.994307 37.409381 9.011866600000001 34.759393 6.9544658 32.327628000000004" stroke="#000000" stroke-width="1" fill="none"></path><path id="SvgjsPath1048668" d="M 6.9544658 32.327628000000004 C -3.0530844000000004 20.499107 4.9956704 2.52499997 20.299999 2.52499997" stroke="#000000" stroke-width="1" fill="none"></path><path id="SvgjsPath1048669" d="M 20.299999 2.52499997 C 27.370442 2.52499997 33.088531 6.0887728999999995 36.218139 12.445909" stroke="#000000" stroke-width="1" fill="none"></path><path id="SvgjsPath1048670" d="M 36.218139 12.445909 C 39.448621 19.007951 38.4617 26.635111000000002 33.645532 32.327628000000004" stroke="#000000" stroke-width="1" fill="none"></path><path id="SvgjsPath1048671" d="M 33.645532 32.327628000000004 C 30.235792 36.357804 23.241827999999998 38.780074 17.480634 37.926134000000005" stroke="#000000" stroke-width="1" fill="none"></path><path id="SvgjsPath1048824" d="M 17.480634000000002 72.92613399999999 C 13.994307 72.409381 9.011866600000001 69.759393 6.9544658 67.327628" stroke="#000000" stroke-width="1" fill="none"></path><path id="SvgjsPath1048825" d="M 6.9544658 67.327628 C -3.0530844000000004 55.499106999999995 4.9956704 37.52499997 20.299999 37.52499997" stroke="#000000" stroke-width="1" fill="none"></path><path id="SvgjsPath1048826" d="M 20.299999 37.52499997 C 27.370442 37.52499997 33.088531 41.0887729 36.218139 47.445909" stroke="#000000" stroke-width="1" fill="none"></path><path id="SvgjsPath1048827" d="M 36.218139 47.445909 C 39.448621 54.007951 38.4617 61.635111 33.645532 67.327628" stroke="#000000" stroke-width="1" fill="none"></path><path id="SvgjsPath1048828" d="M 33.645532 67.327628 C 30.235792 71.357804 23.241827999999998 73.780074 17.480634 72.926134" stroke="#000000" stroke-width="1" fill="none"></path><path id="SvgjsPath1048981" d="M 17.480634000000002 107.92613399999999 C 13.994307 107.409381 9.011866600000001 104.759393 6.9544658 102.327628" stroke="#000000" stroke-width="1" fill="none"></path><path id="SvgjsPath1048982" d="M 6.9544658 102.327628 C -3.0530844000000004 90.499107 4.9956704 72.52499997 20.299999 72.52499997" stroke="#000000" stroke-width="1" fill="none"></path><path id="SvgjsPath1048983" d="M 20.299999 72.52499997 C 27.370442 72.52499997 33.088531 76.0887729 36.218139 82.445909" stroke="#000000" stroke-width="1" fill="none"></path><path id="SvgjsPath1048984" d="M 36.218139 82.445909 C 39.448621 89.00795099999999 38.4617 96.635111 33.645532 102.327628" stroke="#000000" stroke-width="1" fill="none"></path><path id="SvgjsPath1048985" d="M 33.645532 102.327628 C 30.235792 106.357804 23.241827999999998 108.780074 17.480634 107.926134" stroke="#000000" stroke-width="1" fill="none"></path><path id="SvgjsPath1049138" d="M 17.480634000000002 142.926134 C 13.994307 142.409381 9.011866600000001 139.759393 6.9544658 137.327628" stroke="#000000" stroke-width="1" fill="none"></path><path id="SvgjsPath1049139" d="M 6.9544658 137.327628 C -3.0530844000000004 125.499107 4.9956704 107.52499997 20.299999 107.52499997" stroke="#000000" stroke-width="1" fill="none"></path><path id="SvgjsPath1049140" d="M 20.299999 107.52499997 C 27.370442 107.52499997 33.088531 111.0887729 36.218139 117.445909" stroke="#000000" stroke-width="1" fill="none"></path><path id="SvgjsPath1049141" d="M 36.218139 117.445909 C 39.448621 124.00795099999999 38.4617 131.635111 33.645532 137.327628" stroke="#000000" stroke-width="1" fill="none"></path><path id="SvgjsPath1049142" d="M 33.645532 137.327628 C 30.235792 141.357804 23.241827999999998 143.780074 17.480634 142.926134" stroke="#000000" stroke-width="1" fill="none"></path><path id="SvgjsPath1049295" d="M 17.480634000000002 177.926134 C 13.994307 177.409381 9.011866600000001 174.759393 6.9544658 172.327628" stroke="#000000" stroke-width="1" fill="none"></path><path id="SvgjsPath1049296" d="M 6.9544658 172.327628 C -3.0530844000000004 160.499107 4.9956704 142.52499997 20.299999 142.52499997" stroke="#000000" stroke-width="1" fill="none"></path><path id="SvgjsPath1049297" d="M 20.299999 142.52499997 C 27.370442 142.52499997 33.088531 146.0887729 36.218139 152.445909" stroke="#000000" stroke-width="1" fill="none"></path><path id="SvgjsPath1049298" d="M 36.218139 152.445909 C 39.448621 159.007951 38.4617 166.635111 33.645532 172.327628" stroke="#000000" stroke-width="1" fill="none"></path><path id="SvgjsPath1049299" d="M 33.645532 172.327628 C 30.235792 176.357804 23.241827999999998 178.780074 17.480634 177.926134" stroke="#000000" stroke-width="1" fill="none"></path><path id="SvgjsPath1049452" d="M 17.480634000000002 212.926134 C 13.994307 212.409381 9.011866600000001 209.759393 6.9544658 207.327628" stroke="#000000" stroke-width="1" fill="none"></path><path id="SvgjsPath1049453" d="M 6.9544658 207.327628 C -3.0530844000000004 195.499107 4.9956704 177.52499997 20.299999 177.52499997" stroke="#000000" stroke-width="1" fill="none"></path><path id="SvgjsPath1049454" d="M 20.299999 177.52499997 C 27.370442 177.52499997 33.088531 181.0887729 36.218139 187.445909" stroke="#000000" stroke-width="1" fill="none"></path><path id="SvgjsPath1049455" d="M 36.218139 187.445909 C 39.448621 194.007951 38.4617 201.635111 33.645532 207.327628" stroke="#000000" stroke-width="1" fill="none"></path><path id="SvgjsPath1049456" d="M 33.645532 207.327628 C 30.235792 211.357804 23.241827999999998 213.780074 17.480634 212.926134" stroke="#000000" stroke-width="1" fill="none"></path><path id="SvgjsPath1049609" d="M 17.480634000000002 247.926134 C 13.994307 247.409381 9.011866600000001 244.759393 6.9544658 242.327628" stroke="#000000" stroke-width="1" fill="none"></path><path id="SvgjsPath1049610" d="M 6.9544658 242.327628 C -3.0530844000000004 230.499107 4.9956704 212.52499997 20.299999 212.52499997" stroke="#000000" stroke-width="1" fill="none"></path><path id="SvgjsPath1049611" d="M 20.299999 212.52499997 C 27.370442 212.52499997 33.088531 216.0887729 36.218139 222.445909" stroke="#000000" stroke-width="1" fill="none"></path><path id="SvgjsPath1049612" d="M 36.218139 222.445909 C 39.448621 229.007951 38.4617 236.635111 33.645532 242.327628" stroke="#000000" stroke-width="1" fill="none"></path><path id="SvgjsPath1049613" d="M 33.645532 242.327628 C 30.235792 246.357804 23.241827999999998 248.780074 17.480634 247.926134" stroke="#000000" stroke-width="1" fill="none"></path><path id="SvgjsPath1049766" d="M 17.480634000000002 282.926134 C 13.994307 282.409381 9.011866600000001 279.759393 6.9544658 277.327628" stroke="#000000" stroke-width="1" fill="none"></path><path id="SvgjsPath1049767" d="M 6.9544658 277.327628 C -3.0530844000000004 265.499107 4.9956704 247.52499997 20.299999 247.52499997" stroke="#000000" stroke-width="1" fill="none"></path><path id="SvgjsPath1049768" d="M 20.299999 247.52499997 C 27.370442 247.52499997 33.088531 251.0887729 36.218139 257.44590900000003" stroke="#000000" stroke-width="1" fill="none"></path><path id="SvgjsPath1049769" d="M 36.218139 257.44590900000003 C 39.448621 264.007951 38.4617 271.635111 33.645532 277.327628" stroke="#000000" stroke-width="1" fill="none"></path><path id="SvgjsPath1049770" d="M 33.645532 277.327628 C 30.235792 281.357804 23.241827999999998 283.780074 17.480634 282.926134" stroke="#000000" stroke-width="1" fill="none"></path><path id="SvgjsPath1049923" d="M 17.480634000000002 317.926134 C 13.994307 317.409381 9.011866600000001 314.759393 6.9544658 312.327628" stroke="#000000" stroke-width="1" fill="none"></path><path id="SvgjsPath1049924" d="M 6.9544658 312.327628 C -3.0530844000000004 300.499107 4.9956704 282.52499997 20.299999 282.52499997" stroke="#000000" stroke-width="1" fill="none"></path><path id="SvgjsPath1049925" d="M 20.299999 282.52499997 C 27.370442 282.52499997 33.088531 286.0887729 36.218139 292.44590900000003" stroke="#000000" stroke-width="1" fill="none"></path><path id="SvgjsPath1049926" d="M 36.218139 292.44590900000003 C 39.448621 299.007951 38.4617 306.635111 33.645532 312.327628" stroke="#000000" stroke-width="1" fill="none"></path><path id="SvgjsPath1049927" d="M 33.645532 312.327628 C 30.235792 316.357804 23.241827999999998 318.780074 17.480634 317.926134" stroke="#000000" stroke-width="1" fill="none"></path><path id="SvgjsPath1050080" d="M 17.480634000000002 352.926134 C 13.994307 352.409381 9.011866600000001 349.759393 6.9544658 347.327628" stroke="#000000" stroke-width="1" fill="none"></path><path id="SvgjsPath1050081" d="M 6.9544658 347.327628 C -3.0530844000000004 335.499107 4.9956704 317.52499997 20.299999 317.52499997" stroke="#000000" stroke-width="1" fill="none"></path><path id="SvgjsPath1050082" d="M 20.299999 317.52499997 C 27.370442 317.52499997 33.088531 321.0887729 36.218139 327.44590900000003" stroke="#000000" stroke-width="1" fill="none"></path><path id="SvgjsPath1050083" d="M 36.218139 327.44590900000003 C 39.448621 334.007951 38.4617 341.635111 33.645532 347.327628" stroke="#000000" stroke-width="1" fill="none"></path><path id="SvgjsPath1050084" d="M 33.645532 347.327628 C 30.235792 351.357804 23.241827999999998 353.780074 17.480634 352.926134" stroke="#000000" stroke-width="1" fill="none"></path><path id="SvgjsPath1050237" d="M 52.480634 37.926134 C 48.994307 37.409381 44.011866600000005 34.759393 41.9544658 32.327628000000004" stroke="#000000" stroke-width="1" fill="none"></path><path id="SvgjsPath1050238" d="M 41.9544658 32.327628000000004 C 31.9469156 20.499107 39.9956704 2.52499997 55.299999 2.52499997" stroke="#000000" stroke-width="1" fill="none"></path><path id="SvgjsPath1050239" d="M 55.299999 2.52499997 C 62.370442 2.52499997 68.088531 6.0887728999999995 71.21813900000001 12.445909" stroke="#000000" stroke-width="1" fill="none"></path><path id="SvgjsPath1050240" d="M 71.21813900000001 12.445909 C 74.448621 19.007951 73.46170000000001 26.635111000000002 68.645532 32.327628000000004" stroke="#000000" stroke-width="1" fill="none"></path><path id="SvgjsPath1050241" d="M 68.645532 32.327628000000004 C 65.235792 36.357804 58.241828 38.780074 52.480633999999995 37.926134000000005" stroke="#000000" stroke-width="1" fill="none"></path><path id="SvgjsPath1050394" d="M 52.480634 72.92613399999999 C 48.994307 72.409381 44.011866600000005 69.759393 41.9544658 67.327628" stroke="#000000" stroke-width="1" fill="none"></path><path id="SvgjsPath1050395" d="M 41.9544658 67.327628 C 31.9469156 55.499106999999995 39.9956704 37.52499997 55.299999 37.52499997" stroke="#000000" stroke-width="1" fill="none"></path><path id="SvgjsPath1050396" d="M 55.299999 37.52499997 C 62.370442 37.52499997 68.088531 41.0887729 71.21813900000001 47.445909" stroke="#000000" stroke-width="1" fill="none"></path><path id="SvgjsPath1050397" d="M 71.21813900000001 47.445909 C 74.448621 54.007951 73.46170000000001 61.635111 68.645532 67.327628" stroke="#000000" stroke-width="1" fill="none"></path><path id="SvgjsPath1050398" d="M 68.645532 67.327628 C 65.235792 71.357804 58.241828 73.780074 52.480633999999995 72.926134" stroke="#000000" stroke-width="1" fill="none"></path><path id="SvgjsPath1050551" d="M 52.480634 107.92613399999999 C 48.994307 107.409381 44.011866600000005 104.759393 41.9544658 102.327628" stroke="#000000" stroke-width="1" fill="none"></path><path id="SvgjsPath1050552" d="M 41.9544658 102.327628 C 31.9469156 90.499107 39.9956704 72.52499997 55.299999 72.52499997" stroke="#000000" stroke-width="1" fill="none"></path><path id="SvgjsPath1050553" d="M 55.299999 72.52499997 C 62.370442 72.52499997 68.088531 76.0887729 71.21813900000001 82.445909" stroke="#000000" stroke-width="1" fill="none"></path><path id="SvgjsPath1050554" d="M 71.21813900000001 82.445909 C 74.448621 89.00795099999999 73.46170000000001 96.635111 68.645532 102.327628" stroke="#000000" stroke-width="1" fill="none"></path><path id="SvgjsPath1050555" d="M 68.645532 102.327628 C 65.235792 106.357804 58.241828 108.780074 52.480633999999995 107.926134" stroke="#000000" stroke-width="1" fill="none"></path><path id="SvgjsPath1050708" d="M 52.480634 142.926134 C 48.994307 142.409381 44.011866600000005 139.759393 41.9544658 137.327628" stroke="#000000" stroke-width="1" fill="none"></path><path id="SvgjsPath1050709" d="M 41.9544658 137.327628 C 31.9469156 125.499107 39.9956704 107.52499997 55.299999 107.52499997" stroke="#000000" stroke-width="1" fill="none"></path><path id="SvgjsPath1050710" d="M 55.299999 107.52499997 C 62.370442 107.52499997 68.088531 111.0887729 71.21813900000001 117.445909" stroke="#000000" stroke-width="1" fill="none"></path><path id="SvgjsPath1050711" d="M 71.21813900000001 117.445909 C 74.448621 124.00795099999999 73.46170000000001 131.635111 68.645532 137.327628" stroke="#000000" stroke-width="1" fill="none"></path><path id="SvgjsPath1050712" d="M 68.645532 137.327628 C 65.235792 141.357804 58.241828 143.780074 52.480633999999995 142.926134" stroke="#000000" stroke-width="1" fill="none"></path><path id="SvgjsPath1050865" d="M 52.480634 177.926134 C 48.994307 177.409381 44.011866600000005 174.759393 41.9544658 172.327628" stroke="#000000" stroke-width="1" fill="none"></path><path id="SvgjsPath1050866" d="M 41.9544658 172.327628 C 31.9469156 160.499107 39.9956704 142.52499997 55.299999 142.52499997" stroke="#000000" stroke-width="1" fill="none"></path><path id="SvgjsPath1050867" d="M 55.299999 142.52499997 C 62.370442 142.52499997 68.088531 146.0887729 71.21813900000001 152.445909" stroke="#000000" stroke-width="1" fill="none"></path><path id="SvgjsPath1050868" d="M 71.21813900000001 152.445909 C 74.448621 159.007951 73.46170000000001 166.635111 68.645532 172.327628" stroke="#000000" stroke-width="1" fill="none"></path><path id="SvgjsPath1050869" d="M 68.645532 172.327628 C 65.235792 176.357804 58.241828 178.780074 52.480633999999995 177.926134" stroke="#000000" stroke-width="1" fill="none"></path><path id="SvgjsPath1051022" d="M 52.480634 212.926134 C 48.994307 212.409381 44.011866600000005 209.759393 41.9544658 207.327628" stroke="#000000" stroke-width="1" fill="none"></path><path id="SvgjsPath1051023" d="M 41.9544658 207.327628 C 31.9469156 195.499107 39.9956704 177.52499997 55.299999 177.52499997" stroke="#000000" stroke-width="1" fill="none"></path><path id="SvgjsPath1051024" d="M 55.299999 177.52499997 C 62.370442 177.52499997 68.088531 181.0887729 71.21813900000001 187.445909" stroke="#000000" stroke-width="1" fill="none"></path><path id="SvgjsPath1051025" d="M 71.21813900000001 187.445909 C 74.448621 194.007951 73.46170000000001 201.635111 68.645532 207.327628" stroke="#000000" stroke-width="1" fill="none"></path><path id="SvgjsPath1051026" d="M 68.645532 207.327628 C 65.235792 211.357804 58.241828 213.780074 52.480633999999995 212.926134" stroke="#000000" stroke-width="1" fill="none"></path><path id="SvgjsPath1051179" d="M 52.480634 247.926134 C 48.994307 247.409381 44.011866600000005 244.759393 41.9544658 242.327628" stroke="#000000" stroke-width="1" fill="none"></path><path id="SvgjsPath1051180" d="M 41.9544658 242.327628 C 31.9469156 230.499107 39.9956704 212.52499997 55.299999 212.52499997" stroke="#000000" stroke-width="1" fill="none"></path><path id="SvgjsPath1051181" d="M 55.299999 212.52499997 C 62.370442 212.52499997 68.088531 216.0887729 71.21813900000001 222.445909" stroke="#000000" stroke-width="1" fill="none"></path><path id="SvgjsPath1051182" d="M 71.21813900000001 222.445909 C 74.448621 229.007951 73.46170000000001 236.635111 68.645532 242.327628" stroke="#000000" stroke-width="1" fill="none"></path><path id="SvgjsPath1051183" d="M 68.645532 242.327628 C 65.235792 246.357804 58.241828 248.780074 52.480633999999995 247.926134" stroke="#000000" stroke-width="1" fill="none"></path><path id="SvgjsPath1051336" d="M 52.480634 282.926134 C 48.994307 282.409381 44.011866600000005 279.759393 41.9544658 277.327628" stroke="#000000" stroke-width="1" fill="none"></path><path id="SvgjsPath1051337" d="M 41.9544658 277.327628 C 31.9469156 265.499107 39.9956704 247.52499997 55.299999 247.52499997" stroke="#000000" stroke-width="1" fill="none"></path><path id="SvgjsPath1051338" d="M 55.299999 247.52499997 C 62.370442 247.52499997 68.088531 251.0887729 71.21813900000001 257.44590900000003" stroke="#000000" stroke-width="1" fill="none"></path><path id="SvgjsPath1051339" d="M 71.21813900000001 257.44590900000003 C 74.448621 264.007951 73.46170000000001 271.635111 68.645532 277.327628" stroke="#000000" stroke-width="1" fill="none"></path><path id="SvgjsPath1051340" d="M 68.645532 277.327628 C 65.235792 281.357804 58.241828 283.780074 52.480633999999995 282.926134" stroke="#000000" stroke-width="1" fill="none"></path><path id="SvgjsPath1051493" d="M 52.480634 317.926134 C 48.994307 317.409381 44.011866600000005 314.759393 41.9544658 312.327628" stroke="#000000" stroke-width="1" fill="none"></path><path id="SvgjsPath1051494" d="M 41.9544658 312.327628 C 31.9469156 300.499107 39.9956704 282.52499997 55.299999 282.52499997" stroke="#000000" stroke-width="1" fill="none"></path><path id="SvgjsPath1051495" d="M 55.299999 282.52499997 C 62.370442 282.52499997 68.088531 286.0887729 71.21813900000001 292.44590900000003" stroke="#000000" stroke-width="1" fill="none"></path><path id="SvgjsPath1051496" d="M 71.21813900000001 292.44590900000003 C 74.448621 299.007951 73.46170000000001 306.635111 68.645532 312.327628" stroke="#000000" stroke-width="1" fill="none"></path><path id="SvgjsPath1051497" d="M 68.645532 312.327628 C 65.235792 316.357804 58.241828 318.780074 52.480633999999995 317.926134" stroke="#000000" stroke-width="1" fill="none"></path><path id="SvgjsPath1051650" d="M 52.480634 352.926134 C 48.994307 352.409381 44.011866600000005 349.759393 41.9544658 347.327628" stroke="#000000" stroke-width="1" fill="none"></path><path id="SvgjsPath1051651" d="M 41.9544658 347.327628 C 31.9469156 335.499107 39.9956704 317.52499997 55.299999 317.52499997" stroke="#000000" stroke-width="1" fill="none"></path><path id="SvgjsPath1051652" d="M 55.299999 317.52499997 C 62.370442 317.52499997 68.088531 321.0887729 71.21813900000001 327.44590900000003" stroke="#000000" stroke-width="1" fill="none"></path><path id="SvgjsPath1051653" d="M 71.21813900000001 327.44590900000003 C 74.448621 334.007951 73.46170000000001 341.635111 68.645532 347.327628" stroke="#000000" stroke-width="1" fill="none"></path><path id="SvgjsPath1051654" d="M 68.645532 347.327628 C 65.235792 351.357804 58.241828 353.780074 52.480633999999995 352.926134" stroke="#000000" stroke-width="1" fill="none"></path><path id="SvgjsPath1051807" d="M 87.48063400000001 37.926134 C 83.99430699999999 37.409381 79.0118666 34.759393 76.9544658 32.327628000000004" stroke="#000000" stroke-width="1" fill="none"></path><path id="SvgjsPath1051808" d="M 76.9544658 32.327628000000004 C 66.9469156 20.499107 74.9956704 2.52499997 90.299999 2.52499997" stroke="#000000" stroke-width="1" fill="none"></path><path id="SvgjsPath1051809" d="M 90.299999 2.52499997 C 97.370442 2.52499997 103.088531 6.0887728999999995 106.21813900000001 12.445909" stroke="#000000" stroke-width="1" fill="none"></path><path id="SvgjsPath1051810" d="M 106.21813900000001 12.445909 C 109.448621 19.007951 108.46170000000001 26.635111000000002 103.645532 32.327628000000004" stroke="#000000" stroke-width="1" fill="none"></path><path id="SvgjsPath1051811" d="M 103.645532 32.327628000000004 C 100.235792 36.357804 93.241828 38.780074 87.480634 37.926134000000005" stroke="#000000" stroke-width="1" fill="none"></path><path id="SvgjsPath1051964" d="M 87.48063400000001 72.92613399999999 C 83.99430699999999 72.409381 79.0118666 69.759393 76.9544658 67.327628" stroke="#000000" stroke-width="1" fill="none"></path><path id="SvgjsPath1051965" d="M 76.9544658 67.327628 C 66.9469156 55.499106999999995 74.9956704 37.52499997 90.299999 37.52499997" stroke="#000000" stroke-width="1" fill="none"></path><path id="SvgjsPath1051966" d="M 90.299999 37.52499997 C 97.370442 37.52499997 103.088531 41.0887729 106.21813900000001 47.445909" stroke="#000000" stroke-width="1" fill="none"></path><path id="SvgjsPath1051967" d="M 106.21813900000001 47.445909 C 109.448621 54.007951 108.46170000000001 61.635111 103.645532 67.327628" stroke="#000000" stroke-width="1" fill="none"></path><path id="SvgjsPath1051968" d="M 103.645532 67.327628 C 100.235792 71.357804 93.241828 73.780074 87.480634 72.926134" stroke="#000000" stroke-width="1" fill="none"></path><path id="SvgjsPath1052121" d="M 87.48063400000001 107.92613399999999 C 83.99430699999999 107.409381 79.0118666 104.759393 76.9544658 102.327628" stroke="#000000" stroke-width="1" fill="none"></path><path id="SvgjsPath1052122" d="M 76.9544658 102.327628 C 66.9469156 90.499107 74.9956704 72.52499997 90.299999 72.52499997" stroke="#000000" stroke-width="1" fill="none"></path><path id="SvgjsPath1052123" d="M 90.299999 72.52499997 C 97.370442 72.52499997 103.088531 76.0887729 106.21813900000001 82.445909" stroke="#000000" stroke-width="1" fill="none"></path><path id="SvgjsPath1052124" d="M 106.21813900000001 82.445909 C 109.448621 89.00795099999999 108.46170000000001 96.635111 103.645532 102.327628" stroke="#000000" stroke-width="1" fill="none"></path><path id="SvgjsPath1052125" d="M 103.645532 102.327628 C 100.235792 106.357804 93.241828 108.780074 87.480634 107.926134" stroke="#000000" stroke-width="1" fill="none"></path><path id="SvgjsPath1052278" d="M 87.48063400000001 142.926134 C 83.99430699999999 142.409381 79.0118666 139.759393 76.9544658 137.327628" stroke="#000000" stroke-width="1" fill="none"></path><path id="SvgjsPath1052279" d="M 76.9544658 137.327628 C 66.9469156 125.499107 74.9956704 107.52499997 90.299999 107.52499997" stroke="#000000" stroke-width="1" fill="none"></path><path id="SvgjsPath1052280" d="M 90.299999 107.52499997 C 97.370442 107.52499997 103.088531 111.0887729 106.21813900000001 117.445909" stroke="#000000" stroke-width="1" fill="none"></path><path id="SvgjsPath1052281" d="M 106.21813900000001 117.445909 C 109.448621 124.00795099999999 108.46170000000001 131.635111 103.645532 137.327628" stroke="#000000" stroke-width="1" fill="none"></path><path id="SvgjsPath1052282" d="M 103.645532 137.327628 C 100.235792 141.357804 93.241828 143.780074 87.480634 142.926134" stroke="#000000" stroke-width="1" fill="none"></path><path id="SvgjsPath1052435" d="M 87.48063400000001 177.926134 C 83.99430699999999 177.409381 79.0118666 174.759393 76.9544658 172.327628" stroke="#000000" stroke-width="1" fill="none"></path><path id="SvgjsPath1052436" d="M 76.9544658 172.327628 C 66.9469156 160.499107 74.9956704 142.52499997 90.299999 142.52499997" stroke="#000000" stroke-width="1" fill="none"></path><path id="SvgjsPath1052437" d="M 90.299999 142.52499997 C 97.370442 142.52499997 103.088531 146.0887729 106.21813900000001 152.445909" stroke="#000000" stroke-width="1" fill="none"></path><path id="SvgjsPath1052438" d="M 106.21813900000001 152.445909 C 109.448621 159.007951 108.46170000000001 166.635111 103.645532 172.327628" stroke="#000000" stroke-width="1" fill="none"></path><path id="SvgjsPath1052439" d="M 103.645532 172.327628 C 100.235792 176.357804 93.241828 178.780074 87.480634 177.926134" stroke="#000000" stroke-width="1" fill="none"></path><path id="SvgjsPath1052592" d="M 87.48063400000001 212.926134 C 83.99430699999999 212.409381 79.0118666 209.759393 76.9544658 207.327628" stroke="#000000" stroke-width="1" fill="none"></path><path id="SvgjsPath1052593" d="M 76.9544658 207.327628 C 66.9469156 195.499107 74.9956704 177.52499997 90.299999 177.52499997" stroke="#000000" stroke-width="1" fill="none"></path><path id="SvgjsPath1052594" d="M 90.299999 177.52499997 C 97.370442 177.52499997 103.088531 181.0887729 106.21813900000001 187.445909" stroke="#000000" stroke-width="1" fill="none"></path><path id="SvgjsPath1052595" d="M 106.21813900000001 187.445909 C 109.448621 194.007951 108.46170000000001 201.635111 103.645532 207.327628" stroke="#000000" stroke-width="1" fill="none"></path><path id="SvgjsPath1052596" d="M 103.645532 207.327628 C 100.235792 211.357804 93.241828 213.780074 87.480634 212.926134" stroke="#000000" stroke-width="1" fill="none"></path><path id="SvgjsPath1052749" d="M 87.48063400000001 247.926134 C 83.99430699999999 247.409381 79.0118666 244.759393 76.9544658 242.327628" stroke="#000000" stroke-width="1" fill="none"></path><path id="SvgjsPath1052750" d="M 76.9544658 242.327628 C 66.9469156 230.499107 74.9956704 212.52499997 90.299999 212.52499997" stroke="#000000" stroke-width="1" fill="none"></path><path id="SvgjsPath1052751" d="M 90.299999 212.52499997 C 97.370442 212.52499997 103.088531 216.0887729 106.21813900000001 222.445909" stroke="#000000" stroke-width="1" fill="none"></path><path id="SvgjsPath1052752" d="M 106.21813900000001 222.445909 C 109.448621 229.007951 108.46170000000001 236.635111 103.645532 242.327628" stroke="#000000" stroke-width="1" fill="none"></path><path id="SvgjsPath1052753" d="M 103.645532 242.327628 C 100.235792 246.357804 93.241828 248.780074 87.480634 247.926134" stroke="#000000" stroke-width="1" fill="none"></path><path id="SvgjsPath1052906" d="M 87.48063400000001 282.926134 C 83.99430699999999 282.409381 79.0118666 279.759393 76.9544658 277.327628" stroke="#000000" stroke-width="1" fill="none"></path><path id="SvgjsPath1052907" d="M 76.9544658 277.327628 C 66.9469156 265.499107 74.9956704 247.52499997 90.299999 247.52499997" stroke="#000000" stroke-width="1" fill="none"></path><path id="SvgjsPath1052908" d="M 90.299999 247.52499997 C 97.370442 247.52499997 103.088531 251.0887729 106.21813900000001 257.44590900000003" stroke="#000000" stroke-width="1" fill="none"></path><path id="SvgjsPath1052909" d="M 106.21813900000001 257.44590900000003 C 109.448621 264.007951 108.46170000000001 271.635111 103.645532 277.327628" stroke="#000000" stroke-width="1" fill="none"></path><path id="SvgjsPath1052910" d="M 103.645532 277.327628 C 100.235792 281.357804 93.241828 283.780074 87.480634 282.926134" stroke="#000000" stroke-width="1" fill="none"></path><path id="SvgjsPath1053063" d="M 87.48063400000001 317.926134 C 83.99430699999999 317.409381 79.0118666 314.759393 76.9544658 312.327628" stroke="#000000" stroke-width="1" fill="none"></path><path id="SvgjsPath1053064" d="M 76.9544658 312.327628 C 66.9469156 300.499107 74.9956704 282.52499997 90.299999 282.52499997" stroke="#000000" stroke-width="1" fill="none"></path><path id="SvgjsPath1053065" d="M 90.299999 282.52499997 C 97.370442 282.52499997 103.088531 286.0887729 106.21813900000001 292.44590900000003" stroke="#000000" stroke-width="1" fill="none"></path><path id="SvgjsPath1053066" d="M 106.21813900000001 292.44590900000003 C 109.448621 299.007951 108.46170000000001 306.635111 103.645532 312.327628" stroke="#000000" stroke-width="1" fill="none"></path><path id="SvgjsPath1053067" d="M 103.645532 312.327628 C 100.235792 316.357804 93.241828 318.780074 87.480634 317.926134" stroke="#000000" stroke-width="1" fill="none"></path><path id="SvgjsPath1053220" d="M 87.48063400000001 352.926134 C 83.99430699999999 352.409381 79.0118666 349.759393 76.9544658 347.327628" stroke="#000000" stroke-width="1" fill="none"></path><path id="SvgjsPath1053221" d="M 76.9544658 347.327628 C 66.9469156 335.499107 74.9956704 317.52499997 90.299999 317.52499997" stroke="#000000" stroke-width="1" fill="none"></path><path id="SvgjsPath1053222" d="M 90.299999 317.52499997 C 97.370442 317.52499997 103.088531 321.0887729 106.21813900000001 327.44590900000003" stroke="#000000" stroke-width="1" fill="none"></path><path id="SvgjsPath1053223" d="M 106.21813900000001 327.44590900000003 C 109.448621 334.007951 108.46170000000001 341.635111 103.645532 347.327628" stroke="#000000" stroke-width="1" fill="none"></path><path id="SvgjsPath1053224" d="M 103.645532 347.327628 C 100.235792 351.357804 93.241828 353.780074 87.480634 352.926134" stroke="#000000" stroke-width="1" fill="none"></path><path id="SvgjsPath1053377" d="M 122.48063400000001 37.926134 C 118.99430699999999 37.409381 114.0118666 34.759393 111.9544658 32.327628000000004" stroke="#000000" stroke-width="1" fill="none"></path><path id="SvgjsPath1053378" d="M 111.9544658 32.327628000000004 C 101.9469156 20.499107 109.9956704 2.52499997 125.299999 2.52499997" stroke="#000000" stroke-width="1" fill="none"></path><path id="SvgjsPath1053379" d="M 125.299999 2.52499997 C 132.370442 2.52499997 138.088531 6.0887728999999995 141.218139 12.445909" stroke="#000000" stroke-width="1" fill="none"></path><path id="SvgjsPath1053380" d="M 141.218139 12.445909 C 144.448621 19.007951 143.4617 26.635111000000002 138.645532 32.327628000000004" stroke="#000000" stroke-width="1" fill="none"></path><path id="SvgjsPath1053381" d="M 138.645532 32.327628000000004 C 135.235792 36.357804 128.241828 38.780074 122.480634 37.926134000000005" stroke="#000000" stroke-width="1" fill="none"></path><path id="SvgjsPath1053534" d="M 122.48063400000001 72.92613399999999 C 118.99430699999999 72.409381 114.0118666 69.759393 111.9544658 67.327628" stroke="#000000" stroke-width="1" fill="none"></path><path id="SvgjsPath1053535" d="M 111.9544658 67.327628 C 101.9469156 55.499106999999995 109.9956704 37.52499997 125.299999 37.52499997" stroke="#000000" stroke-width="1" fill="none"></path><path id="SvgjsPath1053536" d="M 125.299999 37.52499997 C 132.370442 37.52499997 138.088531 41.0887729 141.218139 47.445909" stroke="#000000" stroke-width="1" fill="none"></path><path id="SvgjsPath1053537" d="M 141.218139 47.445909 C 144.448621 54.007951 143.4617 61.635111 138.645532 67.327628" stroke="#000000" stroke-width="1" fill="none"></path><path id="SvgjsPath1053538" d="M 138.645532 67.327628 C 135.235792 71.357804 128.241828 73.780074 122.480634 72.926134" stroke="#000000" stroke-width="1" fill="none"></path><path id="SvgjsPath1053691" d="M 122.48063400000001 107.92613399999999 C 118.99430699999999 107.409381 114.0118666 104.759393 111.9544658 102.327628" stroke="#000000" stroke-width="1" fill="none"></path><path id="SvgjsPath1053692" d="M 111.9544658 102.327628 C 101.9469156 90.499107 109.9956704 72.52499997 125.299999 72.52499997" stroke="#000000" stroke-width="1" fill="none"></path><path id="SvgjsPath1053693" d="M 125.299999 72.52499997 C 132.370442 72.52499997 138.088531 76.0887729 141.218139 82.445909" stroke="#000000" stroke-width="1" fill="none"></path><path id="SvgjsPath1053694" d="M 141.218139 82.445909 C 144.448621 89.00795099999999 143.4617 96.635111 138.645532 102.327628" stroke="#000000" stroke-width="1" fill="none"></path><path id="SvgjsPath1053695" d="M 138.645532 102.327628 C 135.235792 106.357804 128.241828 108.780074 122.480634 107.926134" stroke="#000000" stroke-width="1" fill="none"></path><path id="SvgjsPath1053848" d="M 122.48063400000001 142.926134 C 118.99430699999999 142.409381 114.0118666 139.759393 111.9544658 137.327628" stroke="#000000" stroke-width="1" fill="none"></path><path id="SvgjsPath1053849" d="M 111.9544658 137.327628 C 101.9469156 125.499107 109.9956704 107.52499997 125.299999 107.52499997" stroke="#000000" stroke-width="1" fill="none"></path><path id="SvgjsPath1053850" d="M 125.299999 107.52499997 C 132.370442 107.52499997 138.088531 111.0887729 141.218139 117.445909" stroke="#000000" stroke-width="1" fill="none"></path><path id="SvgjsPath1053851" d="M 141.218139 117.445909 C 144.448621 124.00795099999999 143.4617 131.635111 138.645532 137.327628" stroke="#000000" stroke-width="1" fill="none"></path><path id="SvgjsPath1053852" d="M 138.645532 137.327628 C 135.235792 141.357804 128.241828 143.780074 122.480634 142.926134" stroke="#000000" stroke-width="1" fill="none"></path><path id="SvgjsPath1054005" d="M 122.48063400000001 177.926134 C 118.99430699999999 177.409381 114.0118666 174.759393 111.9544658 172.327628" stroke="#000000" stroke-width="1" fill="none"></path><path id="SvgjsPath1054006" d="M 111.9544658 172.327628 C 101.9469156 160.499107 109.9956704 142.52499997 125.299999 142.52499997" stroke="#000000" stroke-width="1" fill="none"></path><path id="SvgjsPath1054007" d="M 125.299999 142.52499997 C 132.370442 142.52499997 138.088531 146.0887729 141.218139 152.445909" stroke="#000000" stroke-width="1" fill="none"></path><path id="SvgjsPath1054008" d="M 141.218139 152.445909 C 144.448621 159.007951 143.4617 166.635111 138.645532 172.327628" stroke="#000000" stroke-width="1" fill="none"></path><path id="SvgjsPath1054009" d="M 138.645532 172.327628 C 135.235792 176.357804 128.241828 178.780074 122.480634 177.926134" stroke="#000000" stroke-width="1" fill="none"></path><path id="SvgjsPath1054162" d="M 122.48063400000001 212.926134 C 118.99430699999999 212.409381 114.0118666 209.759393 111.9544658 207.327628" stroke="#000000" stroke-width="1" fill="none"></path><path id="SvgjsPath1054163" d="M 111.9544658 207.327628 C 101.9469156 195.499107 109.9956704 177.52499997 125.299999 177.52499997" stroke="#000000" stroke-width="1" fill="none"></path><path id="SvgjsPath1054164" d="M 125.299999 177.52499997 C 132.370442 177.52499997 138.088531 181.0887729 141.218139 187.445909" stroke="#000000" stroke-width="1" fill="none"></path><path id="SvgjsPath1054165" d="M 141.218139 187.445909 C 144.448621 194.007951 143.4617 201.635111 138.645532 207.327628" stroke="#000000" stroke-width="1" fill="none"></path><path id="SvgjsPath1054166" d="M 138.645532 207.327628 C 135.235792 211.357804 128.241828 213.780074 122.480634 212.926134" stroke="#000000" stroke-width="1" fill="none"></path><path id="SvgjsPath1054319" d="M 122.48063400000001 247.926134 C 118.99430699999999 247.409381 114.0118666 244.759393 111.9544658 242.327628" stroke="#000000" stroke-width="1" fill="none"></path><path id="SvgjsPath1054320" d="M 111.9544658 242.327628 C 101.9469156 230.499107 109.9956704 212.52499997 125.299999 212.52499997" stroke="#000000" stroke-width="1" fill="none"></path><path id="SvgjsPath1054321" d="M 125.299999 212.52499997 C 132.370442 212.52499997 138.088531 216.0887729 141.218139 222.445909" stroke="#000000" stroke-width="1" fill="none"></path><path id="SvgjsPath1054322" d="M 141.218139 222.445909 C 144.448621 229.007951 143.4617 236.635111 138.645532 242.327628" stroke="#000000" stroke-width="1" fill="none"></path><path id="SvgjsPath1054323" d="M 138.645532 242.327628 C 135.235792 246.357804 128.241828 248.780074 122.480634 247.926134" stroke="#000000" stroke-width="1" fill="none"></path><path id="SvgjsPath1054476" d="M 122.48063400000001 282.926134 C 118.99430699999999 282.409381 114.0118666 279.759393 111.9544658 277.327628" stroke="#000000" stroke-width="1" fill="none"></path><path id="SvgjsPath1054477" d="M 111.9544658 277.327628 C 101.9469156 265.499107 109.9956704 247.52499997 125.299999 247.52499997" stroke="#000000" stroke-width="1" fill="none"></path><path id="SvgjsPath1054478" d="M 125.299999 247.52499997 C 132.370442 247.52499997 138.088531 251.0887729 141.218139 257.44590900000003" stroke="#000000" stroke-width="1" fill="none"></path><path id="SvgjsPath1054479" d="M 141.218139 257.44590900000003 C 144.448621 264.007951 143.4617 271.635111 138.645532 277.327628" stroke="#000000" stroke-width="1" fill="none"></path><path id="SvgjsPath1054480" d="M 138.645532 277.327628 C 135.235792 281.357804 128.241828 283.780074 122.480634 282.926134" stroke="#000000" stroke-width="1" fill="none"></path><path id="SvgjsPath1054633" d="M 122.48063400000001 317.926134 C 118.99430699999999 317.409381 114.0118666 314.759393 111.9544658 312.327628" stroke="#000000" stroke-width="1" fill="none"></path><path id="SvgjsPath1054634" d="M 111.9544658 312.327628 C 101.9469156 300.499107 109.9956704 282.52499997 125.299999 282.52499997" stroke="#000000" stroke-width="1" fill="none"></path><path id="SvgjsPath1054635" d="M 125.299999 282.52499997 C 132.370442 282.52499997 138.088531 286.0887729 141.218139 292.44590900000003" stroke="#000000" stroke-width="1" fill="none"></path><path id="SvgjsPath1054636" d="M 141.218139 292.44590900000003 C 144.448621 299.007951 143.4617 306.635111 138.645532 312.327628" stroke="#000000" stroke-width="1" fill="none"></path><path id="SvgjsPath1054637" d="M 138.645532 312.327628 C 135.235792 316.357804 128.241828 318.780074 122.480634 317.926134" stroke="#000000" stroke-width="1" fill="none"></path><path id="SvgjsPath1054790" d="M 122.48063400000001 352.926134 C 118.99430699999999 352.409381 114.0118666 349.759393 111.9544658 347.327628" stroke="#000000" stroke-width="1" fill="none"></path><path id="SvgjsPath1054791" d="M 111.9544658 347.327628 C 101.9469156 335.499107 109.9956704 317.52499997 125.299999 317.52499997" stroke="#000000" stroke-width="1" fill="none"></path><path id="SvgjsPath1054792" d="M 125.299999 317.52499997 C 132.370442 317.52499997 138.088531 321.0887729 141.218139 327.44590900000003" stroke="#000000" stroke-width="1" fill="none"></path><path id="SvgjsPath1054793" d="M 141.218139 327.44590900000003 C 144.448621 334.007951 143.4617 341.635111 138.645532 347.327628" stroke="#000000" stroke-width="1" fill="none"></path><path id="SvgjsPath1054794" d="M 138.645532 347.327628 C 135.235792 351.357804 128.241828 353.780074 122.480634 352.926134" stroke="#000000" stroke-width="1" fill="none"></path><path id="SvgjsPath1054947" d="M 157.480634 37.926134 C 153.994307 37.409381 149.0118666 34.759393 146.9544658 32.327628000000004" stroke="#000000" stroke-width="1" fill="none"></path><path id="SvgjsPath1054948" d="M 146.9544658 32.327628000000004 C 136.9469156 20.499107 144.9956704 2.52499997 160.299999 2.52499997" stroke="#000000" stroke-width="1" fill="none"></path><path id="SvgjsPath1054949" d="M 160.299999 2.52499997 C 167.370442 2.52499997 173.088531 6.0887728999999995 176.218139 12.445909" stroke="#000000" stroke-width="1" fill="none"></path><path id="SvgjsPath1054950" d="M 176.218139 12.445909 C 179.448621 19.007951 178.4617 26.635111000000002 173.645532 32.327628000000004" stroke="#000000" stroke-width="1" fill="none"></path><path id="SvgjsPath1054951" d="M 173.645532 32.327628000000004 C 170.235792 36.357804 163.241828 38.780074 157.480634 37.926134000000005" stroke="#000000" stroke-width="1" fill="none"></path><path id="SvgjsPath1055104" d="M 157.480634 72.92613399999999 C 153.994307 72.409381 149.0118666 69.759393 146.9544658 67.327628" stroke="#000000" stroke-width="1" fill="none"></path><path id="SvgjsPath1055105" d="M 146.9544658 67.327628 C 136.9469156 55.499106999999995 144.9956704 37.52499997 160.299999 37.52499997" stroke="#000000" stroke-width="1" fill="none"></path><path id="SvgjsPath1055106" d="M 160.299999 37.52499997 C 167.370442 37.52499997 173.088531 41.0887729 176.218139 47.445909" stroke="#000000" stroke-width="1" fill="none"></path><path id="SvgjsPath1055107" d="M 176.218139 47.445909 C 179.448621 54.007951 178.4617 61.635111 173.645532 67.327628" stroke="#000000" stroke-width="1" fill="none"></path><path id="SvgjsPath1055108" d="M 173.645532 67.327628 C 170.235792 71.357804 163.241828 73.780074 157.480634 72.926134" stroke="#000000" stroke-width="1" fill="none"></path><path id="SvgjsPath1055261" d="M 157.480634 107.92613399999999 C 153.994307 107.409381 149.0118666 104.759393 146.9544658 102.327628" stroke="#000000" stroke-width="1" fill="none"></path><path id="SvgjsPath1055262" d="M 146.9544658 102.327628 C 136.9469156 90.499107 144.9956704 72.52499997 160.299999 72.52499997" stroke="#000000" stroke-width="1" fill="none"></path><path id="SvgjsPath1055263" d="M 160.299999 72.52499997 C 167.370442 72.52499997 173.088531 76.0887729 176.218139 82.445909" stroke="#000000" stroke-width="1" fill="none"></path><path id="SvgjsPath1055264" d="M 176.218139 82.445909 C 179.448621 89.00795099999999 178.4617 96.635111 173.645532 102.327628" stroke="#000000" stroke-width="1" fill="none"></path><path id="SvgjsPath1055265" d="M 173.645532 102.327628 C 170.235792 106.357804 163.241828 108.780074 157.480634 107.926134" stroke="#000000" stroke-width="1" fill="none"></path><path id="SvgjsPath1055418" d="M 157.480634 142.926134 C 153.994307 142.409381 149.0118666 139.759393 146.9544658 137.327628" stroke="#000000" stroke-width="1" fill="none"></path><path id="SvgjsPath1055419" d="M 146.9544658 137.327628 C 136.9469156 125.499107 144.9956704 107.52499997 160.299999 107.52499997" stroke="#000000" stroke-width="1" fill="none"></path><path id="SvgjsPath1055420" d="M 160.299999 107.52499997 C 167.370442 107.52499997 173.088531 111.0887729 176.218139 117.445909" stroke="#000000" stroke-width="1" fill="none"></path><path id="SvgjsPath1055421" d="M 176.218139 117.445909 C 179.448621 124.00795099999999 178.4617 131.635111 173.645532 137.327628" stroke="#000000" stroke-width="1" fill="none"></path><path id="SvgjsPath1055422" d="M 173.645532 137.327628 C 170.235792 141.357804 163.241828 143.780074 157.480634 142.926134" stroke="#000000" stroke-width="1" fill="none"></path><path id="SvgjsPath1055575" d="M 157.480634 177.926134 C 153.994307 177.409381 149.0118666 174.759393 146.9544658 172.327628" stroke="#000000" stroke-width="1" fill="none"></path><path id="SvgjsPath1055576" d="M 146.9544658 172.327628 C 136.9469156 160.499107 144.9956704 142.52499997 160.299999 142.52499997" stroke="#000000" stroke-width="1" fill="none"></path><path id="SvgjsPath1055577" d="M 160.299999 142.52499997 C 167.370442 142.52499997 173.088531 146.0887729 176.218139 152.445909" stroke="#000000" stroke-width="1" fill="none"></path><path id="SvgjsPath1055578" d="M 176.218139 152.445909 C 179.448621 159.007951 178.4617 166.635111 173.645532 172.327628" stroke="#000000" stroke-width="1" fill="none"></path><path id="SvgjsPath1055579" d="M 173.645532 172.327628 C 170.235792 176.357804 163.241828 178.780074 157.480634 177.926134" stroke="#000000" stroke-width="1" fill="none"></path><path id="SvgjsPath1055732" d="M 157.480634 212.926134 C 153.994307 212.409381 149.0118666 209.759393 146.9544658 207.327628" stroke="#000000" stroke-width="1" fill="none"></path><path id="SvgjsPath1055733" d="M 146.9544658 207.327628 C 136.9469156 195.499107 144.9956704 177.52499997 160.299999 177.52499997" stroke="#000000" stroke-width="1" fill="none"></path><path id="SvgjsPath1055734" d="M 160.299999 177.52499997 C 167.370442 177.52499997 173.088531 181.0887729 176.218139 187.445909" stroke="#000000" stroke-width="1" fill="none"></path><path id="SvgjsPath1055735" d="M 176.218139 187.445909 C 179.448621 194.007951 178.4617 201.635111 173.645532 207.327628" stroke="#000000" stroke-width="1" fill="none"></path><path id="SvgjsPath1055736" d="M 173.645532 207.327628 C 170.235792 211.357804 163.241828 213.780074 157.480634 212.926134" stroke="#000000" stroke-width="1" fill="none"></path><path id="SvgjsPath1055889" d="M 157.480634 247.926134 C 153.994307 247.409381 149.0118666 244.759393 146.9544658 242.327628" stroke="#000000" stroke-width="1" fill="none"></path><path id="SvgjsPath1055890" d="M 146.9544658 242.327628 C 136.9469156 230.499107 144.9956704 212.52499997 160.299999 212.52499997" stroke="#000000" stroke-width="1" fill="none"></path><path id="SvgjsPath1055891" d="M 160.299999 212.52499997 C 167.370442 212.52499997 173.088531 216.0887729 176.218139 222.445909" stroke="#000000" stroke-width="1" fill="none"></path><path id="SvgjsPath1055892" d="M 176.218139 222.445909 C 179.448621 229.007951 178.4617 236.635111 173.645532 242.327628" stroke="#000000" stroke-width="1" fill="none"></path><path id="SvgjsPath1055893" d="M 173.645532 242.327628 C 170.235792 246.357804 163.241828 248.780074 157.480634 247.926134" stroke="#000000" stroke-width="1" fill="none"></path><path id="SvgjsPath1056046" d="M 157.480634 282.926134 C 153.994307 282.409381 149.0118666 279.759393 146.9544658 277.327628" stroke="#000000" stroke-width="1" fill="none"></path><path id="SvgjsPath1056047" d="M 146.9544658 277.327628 C 136.9469156 265.499107 144.9956704 247.52499997 160.299999 247.52499997" stroke="#000000" stroke-width="1" fill="none"></path><path id="SvgjsPath1056048" d="M 160.299999 247.52499997 C 167.370442 247.52499997 173.088531 251.0887729 176.218139 257.44590900000003" stroke="#000000" stroke-width="1" fill="none"></path><path id="SvgjsPath1056049" d="M 176.218139 257.44590900000003 C 179.448621 264.007951 178.4617 271.635111 173.645532 277.327628" stroke="#000000" stroke-width="1" fill="none"></path><path id="SvgjsPath1056050" d="M 173.645532 277.327628 C 170.235792 281.357804 163.241828 283.780074 157.480634 282.926134" stroke="#000000" stroke-width="1" fill="none"></path><path id="SvgjsPath1056203" d="M 157.480634 317.926134 C 153.994307 317.409381 149.0118666 314.759393 146.9544658 312.327628" stroke="#000000" stroke-width="1" fill="none"></path><path id="SvgjsPath1056204" d="M 146.9544658 312.327628 C 136.9469156 300.499107 144.9956704 282.52499997 160.299999 282.52499997" stroke="#000000" stroke-width="1" fill="none"></path><path id="SvgjsPath1056205" d="M 160.299999 282.52499997 C 167.370442 282.52499997 173.088531 286.0887729 176.218139 292.44590900000003" stroke="#000000" stroke-width="1" fill="none"></path><path id="SvgjsPath1056206" d="M 176.218139 292.44590900000003 C 179.448621 299.007951 178.4617 306.635111 173.645532 312.327628" stroke="#000000" stroke-width="1" fill="none"></path><path id="SvgjsPath1056207" d="M 173.645532 312.327628 C 170.235792 316.357804 163.241828 318.780074 157.480634 317.926134" stroke="#000000" stroke-width="1" fill="none"></path><path id="SvgjsPath1056360" d="M 157.480634 352.926134 C 153.994307 352.409381 149.0118666 349.759393 146.9544658 347.327628" stroke="#000000" stroke-width="1" fill="none"></path><path id="SvgjsPath1056361" d="M 146.9544658 347.327628 C 136.9469156 335.499107 144.9956704 317.52499997 160.299999 317.52499997" stroke="#000000" stroke-width="1" fill="none"></path><path id="SvgjsPath1056362" d="M 160.299999 317.52499997 C 167.370442 317.52499997 173.088531 321.0887729 176.218139 327.44590900000003" stroke="#000000" stroke-width="1" fill="none"></path><path id="SvgjsPath1056363" d="M 176.218139 327.44590900000003 C 179.448621 334.007951 178.4617 341.635111 173.645532 347.327628" stroke="#000000" stroke-width="1" fill="none"></path><path id="SvgjsPath1056364" d="M 173.645532 347.327628 C 170.235792 351.357804 163.241828 353.780074 157.480634 352.926134" stroke="#000000" stroke-width="1" fill="none"></path><path id="SvgjsPath1056517" d="M 192.480634 37.926134 C 188.994307 37.409381 184.0118666 34.759393 181.9544658 32.327628000000004" stroke="#000000" stroke-width="1" fill="none"></path><path id="SvgjsPath1056518" d="M 181.9544658 32.327628000000004 C 171.9469156 20.499107 179.9956704 2.52499997 195.299999 2.52499997" stroke="#000000" stroke-width="1" fill="none"></path><path id="SvgjsPath1056519" d="M 195.299999 2.52499997 C 202.370442 2.52499997 208.088531 6.0887728999999995 211.218139 12.445909" stroke="#000000" stroke-width="1" fill="none"></path><path id="SvgjsPath1056520" d="M 211.218139 12.445909 C 214.448621 19.007951 213.4617 26.635111000000002 208.645532 32.327628000000004" stroke="#000000" stroke-width="1" fill="none"></path><path id="SvgjsPath1056521" d="M 208.645532 32.327628000000004 C 205.235792 36.357804 198.241828 38.780074 192.480634 37.926134000000005" stroke="#000000" stroke-width="1" fill="none"></path><path id="SvgjsPath1056674" d="M 192.480634 72.92613399999999 C 188.994307 72.409381 184.0118666 69.759393 181.9544658 67.327628" stroke="#000000" stroke-width="1" fill="none"></path><path id="SvgjsPath1056675" d="M 181.9544658 67.327628 C 171.9469156 55.499106999999995 179.9956704 37.52499997 195.299999 37.52499997" stroke="#000000" stroke-width="1" fill="none"></path><path id="SvgjsPath1056676" d="M 195.299999 37.52499997 C 202.370442 37.52499997 208.088531 41.0887729 211.218139 47.445909" stroke="#000000" stroke-width="1" fill="none"></path><path id="SvgjsPath1056677" d="M 211.218139 47.445909 C 214.448621 54.007951 213.4617 61.635111 208.645532 67.327628" stroke="#000000" stroke-width="1" fill="none"></path><path id="SvgjsPath1056678" d="M 208.645532 67.327628 C 205.235792 71.357804 198.241828 73.780074 192.480634 72.926134" stroke="#000000" stroke-width="1" fill="none"></path><path id="SvgjsPath1056831" d="M 192.480634 107.92613399999999 C 188.994307 107.409381 184.0118666 104.759393 181.9544658 102.327628" stroke="#000000" stroke-width="1" fill="none"></path><path id="SvgjsPath1056832" d="M 181.9544658 102.327628 C 171.9469156 90.499107 179.9956704 72.52499997 195.299999 72.52499997" stroke="#000000" stroke-width="1" fill="none"></path><path id="SvgjsPath1056833" d="M 195.299999 72.52499997 C 202.370442 72.52499997 208.088531 76.0887729 211.218139 82.445909" stroke="#000000" stroke-width="1" fill="none"></path><path id="SvgjsPath1056834" d="M 211.218139 82.445909 C 214.448621 89.00795099999999 213.4617 96.635111 208.645532 102.327628" stroke="#000000" stroke-width="1" fill="none"></path><path id="SvgjsPath1056835" d="M 208.645532 102.327628 C 205.235792 106.357804 198.241828 108.780074 192.480634 107.926134" stroke="#000000" stroke-width="1" fill="none"></path><path id="SvgjsPath1056988" d="M 192.480634 142.926134 C 188.994307 142.409381 184.0118666 139.759393 181.9544658 137.327628" stroke="#000000" stroke-width="1" fill="none"></path><path id="SvgjsPath1056989" d="M 181.9544658 137.327628 C 171.9469156 125.499107 179.9956704 107.52499997 195.299999 107.52499997" stroke="#000000" stroke-width="1" fill="none"></path><path id="SvgjsPath1056990" d="M 195.299999 107.52499997 C 202.370442 107.52499997 208.088531 111.0887729 211.218139 117.445909" stroke="#000000" stroke-width="1" fill="none"></path><path id="SvgjsPath1056991" d="M 211.218139 117.445909 C 214.448621 124.00795099999999 213.4617 131.635111 208.645532 137.327628" stroke="#000000" stroke-width="1" fill="none"></path><path id="SvgjsPath1056992" d="M 208.645532 137.327628 C 205.235792 141.357804 198.241828 143.780074 192.480634 142.926134" stroke="#000000" stroke-width="1" fill="none"></path><path id="SvgjsPath1057145" d="M 192.480634 177.926134 C 188.994307 177.409381 184.0118666 174.759393 181.9544658 172.327628" stroke="#000000" stroke-width="1" fill="none"></path><path id="SvgjsPath1057146" d="M 181.9544658 172.327628 C 171.9469156 160.499107 179.9956704 142.52499997 195.299999 142.52499997" stroke="#000000" stroke-width="1" fill="none"></path><path id="SvgjsPath1057147" d="M 195.299999 142.52499997 C 202.370442 142.52499997 208.088531 146.0887729 211.218139 152.445909" stroke="#000000" stroke-width="1" fill="none"></path><path id="SvgjsPath1057148" d="M 211.218139 152.445909 C 214.448621 159.007951 213.4617 166.635111 208.645532 172.327628" stroke="#000000" stroke-width="1" fill="none"></path><path id="SvgjsPath1057149" d="M 208.645532 172.327628 C 205.235792 176.357804 198.241828 178.780074 192.480634 177.926134" stroke="#000000" stroke-width="1" fill="none"></path><path id="SvgjsPath1057302" d="M 192.480634 212.926134 C 188.994307 212.409381 184.0118666 209.759393 181.9544658 207.327628" stroke="#000000" stroke-width="1" fill="none"></path><path id="SvgjsPath1057303" d="M 181.9544658 207.327628 C 171.9469156 195.499107 179.9956704 177.52499997 195.299999 177.52499997" stroke="#000000" stroke-width="1" fill="none"></path><path id="SvgjsPath1057304" d="M 195.299999 177.52499997 C 202.370442 177.52499997 208.088531 181.0887729 211.218139 187.445909" stroke="#000000" stroke-width="1" fill="none"></path><path id="SvgjsPath1057305" d="M 211.218139 187.445909 C 214.448621 194.007951 213.4617 201.635111 208.645532 207.327628" stroke="#000000" stroke-width="1" fill="none"></path><path id="SvgjsPath1057306" d="M 208.645532 207.327628 C 205.235792 211.357804 198.241828 213.780074 192.480634 212.926134" stroke="#000000" stroke-width="1" fill="none"></path><path id="SvgjsPath1057459" d="M 192.480634 247.926134 C 188.994307 247.409381 184.0118666 244.759393 181.9544658 242.327628" stroke="#000000" stroke-width="1" fill="none"></path><path id="SvgjsPath1057460" d="M 181.9544658 242.327628 C 171.9469156 230.499107 179.9956704 212.52499997 195.299999 212.52499997" stroke="#000000" stroke-width="1" fill="none"></path><path id="SvgjsPath1057461" d="M 195.299999 212.52499997 C 202.370442 212.52499997 208.088531 216.0887729 211.218139 222.445909" stroke="#000000" stroke-width="1" fill="none"></path><path id="SvgjsPath1057462" d="M 211.218139 222.445909 C 214.448621 229.007951 213.4617 236.635111 208.645532 242.327628" stroke="#000000" stroke-width="1" fill="none"></path><path id="SvgjsPath1057463" d="M 208.645532 242.327628 C 205.235792 246.357804 198.241828 248.780074 192.480634 247.926134" stroke="#000000" stroke-width="1" fill="none"></path><path id="SvgjsPath1057616" d="M 192.480634 282.926134 C 188.994307 282.409381 184.0118666 279.759393 181.9544658 277.327628" stroke="#000000" stroke-width="1" fill="none"></path><path id="SvgjsPath1057617" d="M 181.9544658 277.327628 C 171.9469156 265.499107 179.9956704 247.52499997 195.299999 247.52499997" stroke="#000000" stroke-width="1" fill="none"></path><path id="SvgjsPath1057618" d="M 195.299999 247.52499997 C 202.370442 247.52499997 208.088531 251.0887729 211.218139 257.44590900000003" stroke="#000000" stroke-width="1" fill="none"></path><path id="SvgjsPath1057619" d="M 211.218139 257.44590900000003 C 214.448621 264.007951 213.4617 271.635111 208.645532 277.327628" stroke="#000000" stroke-width="1" fill="none"></path><path id="SvgjsPath1057620" d="M 208.645532 277.327628 C 205.235792 281.357804 198.241828 283.780074 192.480634 282.926134" stroke="#000000" stroke-width="1" fill="none"></path><path id="SvgjsPath1057773" d="M 192.480634 317.926134 C 188.994307 317.409381 184.0118666 314.759393 181.9544658 312.327628" stroke="#000000" stroke-width="1" fill="none"></path><path id="SvgjsPath1057774" d="M 181.9544658 312.327628 C 171.9469156 300.499107 179.9956704 282.52499997 195.299999 282.52499997" stroke="#000000" stroke-width="1" fill="none"></path><path id="SvgjsPath1057775" d="M 195.299999 282.52499997 C 202.370442 282.52499997 208.088531 286.0887729 211.218139 292.44590900000003" stroke="#000000" stroke-width="1" fill="none"></path><path id="SvgjsPath1057776" d="M 211.218139 292.44590900000003 C 214.448621 299.007951 213.4617 306.635111 208.645532 312.327628" stroke="#000000" stroke-width="1" fill="none"></path><path id="SvgjsPath1057777" d="M 208.645532 312.327628 C 205.235792 316.357804 198.241828 318.780074 192.480634 317.926134" stroke="#000000" stroke-width="1" fill="none"></path><path id="SvgjsPath1057930" d="M 192.480634 352.926134 C 188.994307 352.409381 184.0118666 349.759393 181.9544658 347.327628" stroke="#000000" stroke-width="1" fill="none"></path><path id="SvgjsPath1057931" d="M 181.9544658 347.327628 C 171.9469156 335.499107 179.9956704 317.52499997 195.299999 317.52499997" stroke="#000000" stroke-width="1" fill="none"></path><path id="SvgjsPath1057932" d="M 195.299999 317.52499997 C 202.370442 317.52499997 208.088531 321.0887729 211.218139 327.44590900000003" stroke="#000000" stroke-width="1" fill="none"></path><path id="SvgjsPath1057933" d="M 211.218139 327.44590900000003 C 214.448621 334.007951 213.4617 341.635111 208.645532 347.327628" stroke="#000000" stroke-width="1" fill="none"></path><path id="SvgjsPath1057934" d="M 208.645532 347.327628 C 205.235792 351.357804 198.241828 353.780074 192.480634 352.926134" stroke="#000000" stroke-width="1" fill="none"></path><path id="SvgjsPath1058087" d="M 227.480634 37.926134 C 223.994307 37.409381 219.0118666 34.759393 216.9544658 32.327628000000004" stroke="#000000" stroke-width="1" fill="none"></path><path id="SvgjsPath1058088" d="M 216.9544658 32.327628000000004 C 206.9469156 20.499107 214.9956704 2.52499997 230.299999 2.52499997" stroke="#000000" stroke-width="1" fill="none"></path><path id="SvgjsPath1058089" d="M 230.299999 2.52499997 C 237.370442 2.52499997 243.088531 6.0887728999999995 246.218139 12.445909" stroke="#000000" stroke-width="1" fill="none"></path><path id="SvgjsPath1058090" d="M 246.218139 12.445909 C 249.448621 19.007951 248.4617 26.635111000000002 243.645532 32.327628000000004" stroke="#000000" stroke-width="1" fill="none"></path><path id="SvgjsPath1058091" d="M 243.645532 32.327628000000004 C 240.235792 36.357804 233.241828 38.780074 227.480634 37.926134000000005" stroke="#000000" stroke-width="1" fill="none"></path><path id="SvgjsPath1058244" d="M 227.480634 72.92613399999999 C 223.994307 72.409381 219.0118666 69.759393 216.9544658 67.327628" stroke="#000000" stroke-width="1" fill="none"></path><path id="SvgjsPath1058245" d="M 216.9544658 67.327628 C 206.9469156 55.499106999999995 214.9956704 37.52499997 230.299999 37.52499997" stroke="#000000" stroke-width="1" fill="none"></path><path id="SvgjsPath1058246" d="M 230.299999 37.52499997 C 237.370442 37.52499997 243.088531 41.0887729 246.218139 47.445909" stroke="#000000" stroke-width="1" fill="none"></path><path id="SvgjsPath1058247" d="M 246.218139 47.445909 C 249.448621 54.007951 248.4617 61.635111 243.645532 67.327628" stroke="#000000" stroke-width="1" fill="none"></path><path id="SvgjsPath1058248" d="M 243.645532 67.327628 C 240.235792 71.357804 233.241828 73.780074 227.480634 72.926134" stroke="#000000" stroke-width="1" fill="none"></path><path id="SvgjsPath1058401" d="M 227.480634 107.92613399999999 C 223.994307 107.409381 219.0118666 104.759393 216.9544658 102.327628" stroke="#000000" stroke-width="1" fill="none"></path><path id="SvgjsPath1058402" d="M 216.9544658 102.327628 C 206.9469156 90.499107 214.9956704 72.52499997 230.299999 72.52499997" stroke="#000000" stroke-width="1" fill="none"></path><path id="SvgjsPath1058403" d="M 230.299999 72.52499997 C 237.370442 72.52499997 243.088531 76.0887729 246.218139 82.445909" stroke="#000000" stroke-width="1" fill="none"></path><path id="SvgjsPath1058404" d="M 246.218139 82.445909 C 249.448621 89.00795099999999 248.4617 96.635111 243.645532 102.327628" stroke="#000000" stroke-width="1" fill="none"></path><path id="SvgjsPath1058405" d="M 243.645532 102.327628 C 240.235792 106.357804 233.241828 108.780074 227.480634 107.926134" stroke="#000000" stroke-width="1" fill="none"></path><path id="SvgjsPath1058558" d="M 227.480634 142.926134 C 223.994307 142.409381 219.0118666 139.759393 216.9544658 137.327628" stroke="#000000" stroke-width="1" fill="none"></path><path id="SvgjsPath1058559" d="M 216.9544658 137.327628 C 206.9469156 125.499107 214.9956704 107.52499997 230.299999 107.52499997" stroke="#000000" stroke-width="1" fill="none"></path><path id="SvgjsPath1058560" d="M 230.299999 107.52499997 C 237.370442 107.52499997 243.088531 111.0887729 246.218139 117.445909" stroke="#000000" stroke-width="1" fill="none"></path><path id="SvgjsPath1058561" d="M 246.218139 117.445909 C 249.448621 124.00795099999999 248.4617 131.635111 243.645532 137.327628" stroke="#000000" stroke-width="1" fill="none"></path><path id="SvgjsPath1058562" d="M 243.645532 137.327628 C 240.235792 141.357804 233.241828 143.780074 227.480634 142.926134" stroke="#000000" stroke-width="1" fill="none"></path><path id="SvgjsPath1058715" d="M 227.480634 177.926134 C 223.994307 177.409381 219.0118666 174.759393 216.9544658 172.327628" stroke="#000000" stroke-width="1" fill="none"></path><path id="SvgjsPath1058716" d="M 216.9544658 172.327628 C 206.9469156 160.499107 214.9956704 142.52499997 230.299999 142.52499997" stroke="#000000" stroke-width="1" fill="none"></path><path id="SvgjsPath1058717" d="M 230.299999 142.52499997 C 237.370442 142.52499997 243.088531 146.0887729 246.218139 152.445909" stroke="#000000" stroke-width="1" fill="none"></path><path id="SvgjsPath1058718" d="M 246.218139 152.445909 C 249.448621 159.007951 248.4617 166.635111 243.645532 172.327628" stroke="#000000" stroke-width="1" fill="none"></path><path id="SvgjsPath1058719" d="M 243.645532 172.327628 C 240.235792 176.357804 233.241828 178.780074 227.480634 177.926134" stroke="#000000" stroke-width="1" fill="none"></path><path id="SvgjsPath1058872" d="M 227.480634 212.926134 C 223.994307 212.409381 219.0118666 209.759393 216.9544658 207.327628" stroke="#000000" stroke-width="1" fill="none"></path><path id="SvgjsPath1058873" d="M 216.9544658 207.327628 C 206.9469156 195.499107 214.9956704 177.52499997 230.299999 177.52499997" stroke="#000000" stroke-width="1" fill="none"></path><path id="SvgjsPath1058874" d="M 230.299999 177.52499997 C 237.370442 177.52499997 243.088531 181.0887729 246.218139 187.445909" stroke="#000000" stroke-width="1" fill="none"></path><path id="SvgjsPath1058875" d="M 246.218139 187.445909 C 249.448621 194.007951 248.4617 201.635111 243.645532 207.327628" stroke="#000000" stroke-width="1" fill="none"></path><path id="SvgjsPath1058876" d="M 243.645532 207.327628 C 240.235792 211.357804 233.241828 213.780074 227.480634 212.926134" stroke="#000000" stroke-width="1" fill="none"></path><path id="SvgjsPath1059029" d="M 227.480634 247.926134 C 223.994307 247.409381 219.0118666 244.759393 216.9544658 242.327628" stroke="#000000" stroke-width="1" fill="none"></path><path id="SvgjsPath1059030" d="M 216.9544658 242.327628 C 206.9469156 230.499107 214.9956704 212.52499997 230.299999 212.52499997" stroke="#000000" stroke-width="1" fill="none"></path><path id="SvgjsPath1059031" d="M 230.299999 212.52499997 C 237.370442 212.52499997 243.088531 216.0887729 246.218139 222.445909" stroke="#000000" stroke-width="1" fill="none"></path><path id="SvgjsPath1059032" d="M 246.218139 222.445909 C 249.448621 229.007951 248.4617 236.635111 243.645532 242.327628" stroke="#000000" stroke-width="1" fill="none"></path><path id="SvgjsPath1059033" d="M 243.645532 242.327628 C 240.235792 246.357804 233.241828 248.780074 227.480634 247.926134" stroke="#000000" stroke-width="1" fill="none"></path><path id="SvgjsPath1059186" d="M 227.480634 282.926134 C 223.994307 282.409381 219.0118666 279.759393 216.9544658 277.327628" stroke="#000000" stroke-width="1" fill="none"></path><path id="SvgjsPath1059187" d="M 216.9544658 277.327628 C 206.9469156 265.499107 214.9956704 247.52499997 230.299999 247.52499997" stroke="#000000" stroke-width="1" fill="none"></path><path id="SvgjsPath1059188" d="M 230.299999 247.52499997 C 237.370442 247.52499997 243.088531 251.0887729 246.218139 257.44590900000003" stroke="#000000" stroke-width="1" fill="none"></path><path id="SvgjsPath1059189" d="M 246.218139 257.44590900000003 C 249.448621 264.007951 248.4617 271.635111 243.645532 277.327628" stroke="#000000" stroke-width="1" fill="none"></path><path id="SvgjsPath1059190" d="M 243.645532 277.327628 C 240.235792 281.357804 233.241828 283.780074 227.480634 282.926134" stroke="#000000" stroke-width="1" fill="none"></path><path id="SvgjsPath1059343" d="M 227.480634 317.926134 C 223.994307 317.409381 219.0118666 314.759393 216.9544658 312.327628" stroke="#000000" stroke-width="1" fill="none"></path><path id="SvgjsPath1059344" d="M 216.9544658 312.327628 C 206.9469156 300.499107 214.9956704 282.52499997 230.299999 282.52499997" stroke="#000000" stroke-width="1" fill="none"></path><path id="SvgjsPath1059345" d="M 230.299999 282.52499997 C 237.370442 282.52499997 243.088531 286.0887729 246.218139 292.44590900000003" stroke="#000000" stroke-width="1" fill="none"></path><path id="SvgjsPath1059346" d="M 246.218139 292.44590900000003 C 249.448621 299.007951 248.4617 306.635111 243.645532 312.327628" stroke="#000000" stroke-width="1" fill="none"></path><path id="SvgjsPath1059347" d="M 243.645532 312.327628 C 240.235792 316.357804 233.241828 318.780074 227.480634 317.926134" stroke="#000000" stroke-width="1" fill="none"></path><path id="SvgjsPath1059500" d="M 227.480634 352.926134 C 223.994307 352.409381 219.0118666 349.759393 216.9544658 347.327628" stroke="#000000" stroke-width="1" fill="none"></path><path id="SvgjsPath1059501" d="M 216.9544658 347.327628 C 206.9469156 335.499107 214.9956704 317.52499997 230.299999 317.52499997" stroke="#000000" stroke-width="1" fill="none"></path><path id="SvgjsPath1059502" d="M 230.299999 317.52499997 C 237.370442 317.52499997 243.088531 321.0887729 246.218139 327.44590900000003" stroke="#000000" stroke-width="1" fill="none"></path><path id="SvgjsPath1059503" d="M 246.218139 327.44590900000003 C 249.448621 334.007951 248.4617 341.635111 243.645532 347.327628" stroke="#000000" stroke-width="1" fill="none"></path><path id="SvgjsPath1059504" d="M 243.645532 347.327628 C 240.235792 351.357804 233.241828 353.780074 227.480634 352.926134" stroke="#000000" stroke-width="1" fill="none"></path><path id="SvgjsPath1059657" d="M 262.480634 37.926134 C 258.994307 37.409381 254.0118666 34.759393 251.9544658 32.327628000000004" stroke="#000000" stroke-width="1" fill="none"></path><path id="SvgjsPath1059658" d="M 251.9544658 32.327628000000004 C 241.9469156 20.499107 249.9956704 2.52499997 265.299999 2.52499997" stroke="#000000" stroke-width="1" fill="none"></path><path id="SvgjsPath1059659" d="M 265.299999 2.52499997 C 272.370442 2.52499997 278.088531 6.0887728999999995 281.218139 12.445909" stroke="#000000" stroke-width="1" fill="none"></path><path id="SvgjsPath1059660" d="M 281.218139 12.445909 C 284.448621 19.007951 283.4617 26.635111000000002 278.645532 32.327628000000004" stroke="#000000" stroke-width="1" fill="none"></path><path id="SvgjsPath1059661" d="M 278.645532 32.327628000000004 C 275.235792 36.357804 268.241828 38.780074 262.480634 37.926134000000005" stroke="#000000" stroke-width="1" fill="none"></path><path id="SvgjsPath1059814" d="M 262.480634 72.92613399999999 C 258.994307 72.409381 254.0118666 69.759393 251.9544658 67.327628" stroke="#000000" stroke-width="1" fill="none"></path><path id="SvgjsPath1059815" d="M 251.9544658 67.327628 C 241.9469156 55.499106999999995 249.9956704 37.52499997 265.299999 37.52499997" stroke="#000000" stroke-width="1" fill="none"></path><path id="SvgjsPath1059816" d="M 265.299999 37.52499997 C 272.370442 37.52499997 278.088531 41.0887729 281.218139 47.445909" stroke="#000000" stroke-width="1" fill="none"></path><path id="SvgjsPath1059817" d="M 281.218139 47.445909 C 284.448621 54.007951 283.4617 61.635111 278.645532 67.327628" stroke="#000000" stroke-width="1" fill="none"></path><path id="SvgjsPath1059818" d="M 278.645532 67.327628 C 275.235792 71.357804 268.241828 73.780074 262.480634 72.926134" stroke="#000000" stroke-width="1" fill="none"></path><path id="SvgjsPath1059971" d="M 262.480634 107.92613399999999 C 258.994307 107.409381 254.0118666 104.759393 251.9544658 102.327628" stroke="#000000" stroke-width="1" fill="none"></path><path id="SvgjsPath1059972" d="M 251.9544658 102.327628 C 241.9469156 90.499107 249.9956704 72.52499997 265.299999 72.52499997" stroke="#000000" stroke-width="1" fill="none"></path><path id="SvgjsPath1059973" d="M 265.299999 72.52499997 C 272.370442 72.52499997 278.088531 76.0887729 281.218139 82.445909" stroke="#000000" stroke-width="1" fill="none"></path><path id="SvgjsPath1059974" d="M 281.218139 82.445909 C 284.448621 89.00795099999999 283.4617 96.635111 278.645532 102.327628" stroke="#000000" stroke-width="1" fill="none"></path><path id="SvgjsPath1059975" d="M 278.645532 102.327628 C 275.235792 106.357804 268.241828 108.780074 262.480634 107.926134" stroke="#000000" stroke-width="1" fill="none"></path><path id="SvgjsPath1060128" d="M 262.480634 142.926134 C 258.994307 142.409381 254.0118666 139.759393 251.9544658 137.327628" stroke="#000000" stroke-width="1" fill="none"></path><path id="SvgjsPath1060129" d="M 251.9544658 137.327628 C 241.9469156 125.499107 249.9956704 107.52499997 265.299999 107.52499997" stroke="#000000" stroke-width="1" fill="none"></path><path id="SvgjsPath1060130" d="M 265.299999 107.52499997 C 272.370442 107.52499997 278.088531 111.0887729 281.218139 117.445909" stroke="#000000" stroke-width="1" fill="none"></path><path id="SvgjsPath1060131" d="M 281.218139 117.445909 C 284.448621 124.00795099999999 283.4617 131.635111 278.645532 137.327628" stroke="#000000" stroke-width="1" fill="none"></path><path id="SvgjsPath1060132" d="M 278.645532 137.327628 C 275.235792 141.357804 268.241828 143.780074 262.480634 142.926134" stroke="#000000" stroke-width="1" fill="none"></path><path id="SvgjsPath1060285" d="M 262.480634 177.926134 C 258.994307 177.409381 254.0118666 174.759393 251.9544658 172.327628" stroke="#000000" stroke-width="1" fill="none"></path><path id="SvgjsPath1060286" d="M 251.9544658 172.327628 C 241.9469156 160.499107 249.9956704 142.52499997 265.299999 142.52499997" stroke="#000000" stroke-width="1" fill="none"></path><path id="SvgjsPath1060287" d="M 265.299999 142.52499997 C 272.370442 142.52499997 278.088531 146.0887729 281.218139 152.445909" stroke="#000000" stroke-width="1" fill="none"></path><path id="SvgjsPath1060288" d="M 281.218139 152.445909 C 284.448621 159.007951 283.4617 166.635111 278.645532 172.327628" stroke="#000000" stroke-width="1" fill="none"></path><path id="SvgjsPath1060289" d="M 278.645532 172.327628 C 275.235792 176.357804 268.241828 178.780074 262.480634 177.926134" stroke="#000000" stroke-width="1" fill="none"></path><path id="SvgjsPath1060442" d="M 262.480634 212.926134 C 258.994307 212.409381 254.0118666 209.759393 251.9544658 207.327628" stroke="#000000" stroke-width="1" fill="none"></path><path id="SvgjsPath1060443" d="M 251.9544658 207.327628 C 241.9469156 195.499107 249.9956704 177.52499997 265.299999 177.52499997" stroke="#000000" stroke-width="1" fill="none"></path><path id="SvgjsPath1060444" d="M 265.299999 177.52499997 C 272.370442 177.52499997 278.088531 181.0887729 281.218139 187.445909" stroke="#000000" stroke-width="1" fill="none"></path><path id="SvgjsPath1060445" d="M 281.218139 187.445909 C 284.448621 194.007951 283.4617 201.635111 278.645532 207.327628" stroke="#000000" stroke-width="1" fill="none"></path><path id="SvgjsPath1060446" d="M 278.645532 207.327628 C 275.235792 211.357804 268.241828 213.780074 262.480634 212.926134" stroke="#000000" stroke-width="1" fill="none"></path><path id="SvgjsPath1060599" d="M 262.480634 247.926134 C 258.994307 247.409381 254.0118666 244.759393 251.9544658 242.327628" stroke="#000000" stroke-width="1" fill="none"></path><path id="SvgjsPath1060600" d="M 251.9544658 242.327628 C 241.9469156 230.499107 249.9956704 212.52499997 265.299999 212.52499997" stroke="#000000" stroke-width="1" fill="none"></path><path id="SvgjsPath1060601" d="M 265.299999 212.52499997 C 272.370442 212.52499997 278.088531 216.0887729 281.218139 222.445909" stroke="#000000" stroke-width="1" fill="none"></path><path id="SvgjsPath1060602" d="M 281.218139 222.445909 C 284.448621 229.007951 283.4617 236.635111 278.645532 242.327628" stroke="#000000" stroke-width="1" fill="none"></path><path id="SvgjsPath1060603" d="M 278.645532 242.327628 C 275.235792 246.357804 268.241828 248.780074 262.480634 247.926134" stroke="#000000" stroke-width="1" fill="none"></path><path id="SvgjsPath1060756" d="M 262.480634 282.926134 C 258.994307 282.409381 254.0118666 279.759393 251.9544658 277.327628" stroke="#000000" stroke-width="1" fill="none"></path><path id="SvgjsPath1060757" d="M 251.9544658 277.327628 C 241.9469156 265.499107 249.9956704 247.52499997 265.299999 247.52499997" stroke="#000000" stroke-width="1" fill="none"></path><path id="SvgjsPath1060758" d="M 265.299999 247.52499997 C 272.370442 247.52499997 278.088531 251.0887729 281.218139 257.44590900000003" stroke="#000000" stroke-width="1" fill="none"></path><path id="SvgjsPath1060759" d="M 281.218139 257.44590900000003 C 284.448621 264.007951 283.4617 271.635111 278.645532 277.327628" stroke="#000000" stroke-width="1" fill="none"></path><path id="SvgjsPath1060760" d="M 278.645532 277.327628 C 275.235792 281.357804 268.241828 283.780074 262.480634 282.926134" stroke="#000000" stroke-width="1" fill="none"></path><path id="SvgjsPath1060913" d="M 262.480634 317.926134 C 258.994307 317.409381 254.0118666 314.759393 251.9544658 312.327628" stroke="#000000" stroke-width="1" fill="none"></path><path id="SvgjsPath1060914" d="M 251.9544658 312.327628 C 241.9469156 300.499107 249.9956704 282.52499997 265.299999 282.52499997" stroke="#000000" stroke-width="1" fill="none"></path><path id="SvgjsPath1060915" d="M 265.299999 282.52499997 C 272.370442 282.52499997 278.088531 286.0887729 281.218139 292.44590900000003" stroke="#000000" stroke-width="1" fill="none"></path><path id="SvgjsPath1060916" d="M 281.218139 292.44590900000003 C 284.448621 299.007951 283.4617 306.635111 278.645532 312.327628" stroke="#000000" stroke-width="1" fill="none"></path><path id="SvgjsPath1060917" d="M 278.645532 312.327628 C 275.235792 316.357804 268.241828 318.780074 262.480634 317.926134" stroke="#000000" stroke-width="1" fill="none"></path><path id="SvgjsPath1061070" d="M 262.480634 352.926134 C 258.994307 352.409381 254.0118666 349.759393 251.9544658 347.327628" stroke="#000000" stroke-width="1" fill="none"></path><path id="SvgjsPath1061071" d="M 251.9544658 347.327628 C 241.9469156 335.499107 249.9956704 317.52499997 265.299999 317.52499997" stroke="#000000" stroke-width="1" fill="none"></path><path id="SvgjsPath1061072" d="M 265.299999 317.52499997 C 272.370442 317.52499997 278.088531 321.0887729 281.218139 327.44590900000003" stroke="#000000" stroke-width="1" fill="none"></path><path id="SvgjsPath1061073" d="M 281.218139 327.44590900000003 C 284.448621 334.007951 283.4617 341.635111 278.645532 347.327628" stroke="#000000" stroke-width="1" fill="none"></path><path id="SvgjsPath1061074" d="M 278.645532 347.327628 C 275.235792 351.357804 268.241828 353.780074 262.480634 352.926134" stroke="#000000" stroke-width="1" fill="none"></path><path id="SvgjsPath1061227" d="M 297.480634 37.926134 C 293.994307 37.409381 289.0118666 34.759393 286.9544658 32.327628000000004" stroke="#000000" stroke-width="1" fill="none"></path><path id="SvgjsPath1061228" d="M 286.9544658 32.327628000000004 C 276.9469156 20.499107 284.9956704 2.52499997 300.299999 2.52499997" stroke="#000000" stroke-width="1" fill="none"></path><path id="SvgjsPath1061229" d="M 300.299999 2.52499997 C 307.370442 2.52499997 313.088531 6.0887728999999995 316.218139 12.445909" stroke="#000000" stroke-width="1" fill="none"></path><path id="SvgjsPath1061230" d="M 316.218139 12.445909 C 319.448621 19.007951 318.4617 26.635111000000002 313.645532 32.327628000000004" stroke="#000000" stroke-width="1" fill="none"></path><path id="SvgjsPath1061231" d="M 313.645532 32.327628000000004 C 310.235792 36.357804 303.241828 38.780074 297.480634 37.926134000000005" stroke="#000000" stroke-width="1" fill="none"></path><path id="SvgjsPath1061384" d="M 297.480634 72.92613399999999 C 293.994307 72.409381 289.0118666 69.759393 286.9544658 67.327628" stroke="#000000" stroke-width="1" fill="none"></path><path id="SvgjsPath1061385" d="M 286.9544658 67.327628 C 276.9469156 55.499106999999995 284.9956704 37.52499997 300.299999 37.52499997" stroke="#000000" stroke-width="1" fill="none"></path><path id="SvgjsPath1061386" d="M 300.299999 37.52499997 C 307.370442 37.52499997 313.088531 41.0887729 316.218139 47.445909" stroke="#000000" stroke-width="1" fill="none"></path><path id="SvgjsPath1061387" d="M 316.218139 47.445909 C 319.448621 54.007951 318.4617 61.635111 313.645532 67.327628" stroke="#000000" stroke-width="1" fill="none"></path><path id="SvgjsPath1061388" d="M 313.645532 67.327628 C 310.235792 71.357804 303.241828 73.780074 297.480634 72.926134" stroke="#000000" stroke-width="1" fill="none"></path><path id="SvgjsPath1061541" d="M 297.480634 107.92613399999999 C 293.994307 107.409381 289.0118666 104.759393 286.9544658 102.327628" stroke="#000000" stroke-width="1" fill="none"></path><path id="SvgjsPath1061542" d="M 286.9544658 102.327628 C 276.9469156 90.499107 284.9956704 72.52499997 300.299999 72.52499997" stroke="#000000" stroke-width="1" fill="none"></path><path id="SvgjsPath1061543" d="M 300.299999 72.52499997 C 307.370442 72.52499997 313.088531 76.0887729 316.218139 82.445909" stroke="#000000" stroke-width="1" fill="none"></path><path id="SvgjsPath1061544" d="M 316.218139 82.445909 C 319.448621 89.00795099999999 318.4617 96.635111 313.645532 102.327628" stroke="#000000" stroke-width="1" fill="none"></path><path id="SvgjsPath1061545" d="M 313.645532 102.327628 C 310.235792 106.357804 303.241828 108.780074 297.480634 107.926134" stroke="#000000" stroke-width="1" fill="none"></path><path id="SvgjsPath1061698" d="M 297.480634 142.926134 C 293.994307 142.409381 289.0118666 139.759393 286.9544658 137.327628" stroke="#000000" stroke-width="1" fill="none"></path><path id="SvgjsPath1061699" d="M 286.9544658 137.327628 C 276.9469156 125.499107 284.9956704 107.52499997 300.299999 107.52499997" stroke="#000000" stroke-width="1" fill="none"></path><path id="SvgjsPath1061700" d="M 300.299999 107.52499997 C 307.370442 107.52499997 313.088531 111.0887729 316.218139 117.445909" stroke="#000000" stroke-width="1" fill="none"></path><path id="SvgjsPath1061701" d="M 316.218139 117.445909 C 319.448621 124.00795099999999 318.4617 131.635111 313.645532 137.327628" stroke="#000000" stroke-width="1" fill="none"></path><path id="SvgjsPath1061702" d="M 313.645532 137.327628 C 310.235792 141.357804 303.241828 143.780074 297.480634 142.926134" stroke="#000000" stroke-width="1" fill="none"></path><path id="SvgjsPath1061855" d="M 297.480634 177.926134 C 293.994307 177.409381 289.0118666 174.759393 286.9544658 172.327628" stroke="#000000" stroke-width="1" fill="none"></path><path id="SvgjsPath1061856" d="M 286.9544658 172.327628 C 276.9469156 160.499107 284.9956704 142.52499997 300.299999 142.52499997" stroke="#000000" stroke-width="1" fill="none"></path><path id="SvgjsPath1061857" d="M 300.299999 142.52499997 C 307.370442 142.52499997 313.088531 146.0887729 316.218139 152.445909" stroke="#000000" stroke-width="1" fill="none"></path><path id="SvgjsPath1061858" d="M 316.218139 152.445909 C 319.448621 159.007951 318.4617 166.635111 313.645532 172.327628" stroke="#000000" stroke-width="1" fill="none"></path><path id="SvgjsPath1061859" d="M 313.645532 172.327628 C 310.235792 176.357804 303.241828 178.780074 297.480634 177.926134" stroke="#000000" stroke-width="1" fill="none"></path><path id="SvgjsPath1062012" d="M 297.480634 212.926134 C 293.994307 212.409381 289.0118666 209.759393 286.9544658 207.327628" stroke="#000000" stroke-width="1" fill="none"></path><path id="SvgjsPath1062013" d="M 286.9544658 207.327628 C 276.9469156 195.499107 284.9956704 177.52499997 300.299999 177.52499997" stroke="#000000" stroke-width="1" fill="none"></path><path id="SvgjsPath1062014" d="M 300.299999 177.52499997 C 307.370442 177.52499997 313.088531 181.0887729 316.218139 187.445909" stroke="#000000" stroke-width="1" fill="none"></path><path id="SvgjsPath1062015" d="M 316.218139 187.445909 C 319.448621 194.007951 318.4617 201.635111 313.645532 207.327628" stroke="#000000" stroke-width="1" fill="none"></path><path id="SvgjsPath1062016" d="M 313.645532 207.327628 C 310.235792 211.357804 303.241828 213.780074 297.480634 212.926134" stroke="#000000" stroke-width="1" fill="none"></path><path id="SvgjsPath1062169" d="M 297.480634 247.926134 C 293.994307 247.409381 289.0118666 244.759393 286.9544658 242.327628" stroke="#000000" stroke-width="1" fill="none"></path><path id="SvgjsPath1062170" d="M 286.9544658 242.327628 C 276.9469156 230.499107 284.9956704 212.52499997 300.299999 212.52499997" stroke="#000000" stroke-width="1" fill="none"></path><path id="SvgjsPath1062171" d="M 300.299999 212.52499997 C 307.370442 212.52499997 313.088531 216.0887729 316.218139 222.445909" stroke="#000000" stroke-width="1" fill="none"></path><path id="SvgjsPath1062172" d="M 316.218139 222.445909 C 319.448621 229.007951 318.4617 236.635111 313.645532 242.327628" stroke="#000000" stroke-width="1" fill="none"></path><path id="SvgjsPath1062173" d="M 313.645532 242.327628 C 310.235792 246.357804 303.241828 248.780074 297.480634 247.926134" stroke="#000000" stroke-width="1" fill="none"></path><path id="SvgjsPath1062326" d="M 297.480634 282.926134 C 293.994307 282.409381 289.0118666 279.759393 286.9544658 277.327628" stroke="#000000" stroke-width="1" fill="none"></path><path id="SvgjsPath1062327" d="M 286.9544658 277.327628 C 276.9469156 265.499107 284.9956704 247.52499997 300.299999 247.52499997" stroke="#000000" stroke-width="1" fill="none"></path><path id="SvgjsPath1062328" d="M 300.299999 247.52499997 C 307.370442 247.52499997 313.088531 251.0887729 316.218139 257.44590900000003" stroke="#000000" stroke-width="1" fill="none"></path><path id="SvgjsPath1062329" d="M 316.218139 257.44590900000003 C 319.448621 264.007951 318.4617 271.635111 313.645532 277.327628" stroke="#000000" stroke-width="1" fill="none"></path><path id="SvgjsPath1062330" d="M 313.645532 277.327628 C 310.235792 281.357804 303.241828 283.780074 297.480634 282.926134" stroke="#000000" stroke-width="1" fill="none"></path><path id="SvgjsPath1062483" d="M 297.480634 317.926134 C 293.994307 317.409381 289.0118666 314.759393 286.9544658 312.327628" stroke="#000000" stroke-width="1" fill="none"></path><path id="SvgjsPath1062484" d="M 286.9544658 312.327628 C 276.9469156 300.499107 284.9956704 282.52499997 300.299999 282.52499997" stroke="#000000" stroke-width="1" fill="none"></path><path id="SvgjsPath1062485" d="M 300.299999 282.52499997 C 307.370442 282.52499997 313.088531 286.0887729 316.218139 292.44590900000003" stroke="#000000" stroke-width="1" fill="none"></path><path id="SvgjsPath1062486" d="M 316.218139 292.44590900000003 C 319.448621 299.007951 318.4617 306.635111 313.645532 312.327628" stroke="#000000" stroke-width="1" fill="none"></path><path id="SvgjsPath1062487" d="M 313.645532 312.327628 C 310.235792 316.357804 303.241828 318.780074 297.480634 317.926134" stroke="#000000" stroke-width="1" fill="none"></path><path id="SvgjsPath1062640" d="M 297.480634 352.926134 C 293.994307 352.409381 289.0118666 349.759393 286.9544658 347.327628" stroke="#000000" stroke-width="1" fill="none"></path><path id="SvgjsPath1062641" d="M 286.9544658 347.327628 C 276.9469156 335.499107 284.9956704 317.52499997 300.299999 317.52499997" stroke="#000000" stroke-width="1" fill="none"></path><path id="SvgjsPath1062642" d="M 300.299999 317.52499997 C 307.370442 317.52499997 313.088531 321.0887729 316.218139 327.44590900000003" stroke="#000000" stroke-width="1" fill="none"></path><path id="SvgjsPath1062643" d="M 316.218139 327.44590900000003 C 319.448621 334.007951 318.4617 341.635111 313.645532 347.327628" stroke="#000000" stroke-width="1" fill="none"></path><path id="SvgjsPath1062644" d="M 313.645532 347.327628 C 310.235792 351.357804 303.241828 353.780074 297.480634 352.926134" stroke="#000000" stroke-width="1" fill="none"></path><path id="SvgjsPath1062797" d="M 332.480634 37.926134 C 328.994307 37.409381 324.0118666 34.759393 321.9544658 32.327628000000004" stroke="#000000" stroke-width="1" fill="none"></path><path id="SvgjsPath1062798" d="M 321.9544658 32.327628000000004 C 311.9469156 20.499107 319.9956704 2.52499997 335.299999 2.52499997" stroke="#000000" stroke-width="1" fill="none"></path><path id="SvgjsPath1062799" d="M 335.299999 2.52499997 C 342.370442 2.52499997 348.088531 6.0887728999999995 351.218139 12.445909" stroke="#000000" stroke-width="1" fill="none"></path><path id="SvgjsPath1062800" d="M 351.218139 12.445909 C 354.448621 19.007951 353.4617 26.635111000000002 348.645532 32.327628000000004" stroke="#000000" stroke-width="1" fill="none"></path><path id="SvgjsPath1062801" d="M 348.645532 32.327628000000004 C 345.235792 36.357804 338.241828 38.780074 332.480634 37.926134000000005" stroke="#000000" stroke-width="1" fill="none"></path><path id="SvgjsPath1062954" d="M 332.480634 72.92613399999999 C 328.994307 72.409381 324.0118666 69.759393 321.9544658 67.327628" stroke="#000000" stroke-width="1" fill="none"></path><path id="SvgjsPath1062955" d="M 321.9544658 67.327628 C 311.9469156 55.499106999999995 319.9956704 37.52499997 335.299999 37.52499997" stroke="#000000" stroke-width="1" fill="none"></path><path id="SvgjsPath1062956" d="M 335.299999 37.52499997 C 342.370442 37.52499997 348.088531 41.0887729 351.218139 47.445909" stroke="#000000" stroke-width="1" fill="none"></path><path id="SvgjsPath1062957" d="M 351.218139 47.445909 C 354.448621 54.007951 353.4617 61.635111 348.645532 67.327628" stroke="#000000" stroke-width="1" fill="none"></path><path id="SvgjsPath1062958" d="M 348.645532 67.327628 C 345.235792 71.357804 338.241828 73.780074 332.480634 72.926134" stroke="#000000" stroke-width="1" fill="none"></path><path id="SvgjsPath1063111" d="M 332.480634 107.92613399999999 C 328.994307 107.409381 324.0118666 104.759393 321.9544658 102.327628" stroke="#000000" stroke-width="1" fill="none"></path><path id="SvgjsPath1063112" d="M 321.9544658 102.327628 C 311.9469156 90.499107 319.9956704 72.52499997 335.299999 72.52499997" stroke="#000000" stroke-width="1" fill="none"></path><path id="SvgjsPath1063113" d="M 335.299999 72.52499997 C 342.370442 72.52499997 348.088531 76.0887729 351.218139 82.445909" stroke="#000000" stroke-width="1" fill="none"></path><path id="SvgjsPath1063114" d="M 351.218139 82.445909 C 354.448621 89.00795099999999 353.4617 96.635111 348.645532 102.327628" stroke="#000000" stroke-width="1" fill="none"></path><path id="SvgjsPath1063115" d="M 348.645532 102.327628 C 345.235792 106.357804 338.241828 108.780074 332.480634 107.926134" stroke="#000000" stroke-width="1" fill="none"></path><path id="SvgjsPath1063268" d="M 332.480634 142.926134 C 328.994307 142.409381 324.0118666 139.759393 321.9544658 137.327628" stroke="#000000" stroke-width="1" fill="none"></path><path id="SvgjsPath1063269" d="M 321.9544658 137.327628 C 311.9469156 125.499107 319.9956704 107.52499997 335.299999 107.52499997" stroke="#000000" stroke-width="1" fill="none"></path><path id="SvgjsPath1063270" d="M 335.299999 107.52499997 C 342.370442 107.52499997 348.088531 111.0887729 351.218139 117.445909" stroke="#000000" stroke-width="1" fill="none"></path><path id="SvgjsPath1063271" d="M 351.218139 117.445909 C 354.448621 124.00795099999999 353.4617 131.635111 348.645532 137.327628" stroke="#000000" stroke-width="1" fill="none"></path><path id="SvgjsPath1063272" d="M 348.645532 137.327628 C 345.235792 141.357804 338.241828 143.780074 332.480634 142.926134" stroke="#000000" stroke-width="1" fill="none"></path><path id="SvgjsPath1063425" d="M 332.480634 177.926134 C 328.994307 177.409381 324.0118666 174.759393 321.9544658 172.327628" stroke="#000000" stroke-width="1" fill="none"></path><path id="SvgjsPath1063426" d="M 321.9544658 172.327628 C 311.9469156 160.499107 319.9956704 142.52499997 335.299999 142.52499997" stroke="#000000" stroke-width="1" fill="none"></path><path id="SvgjsPath1063427" d="M 335.299999 142.52499997 C 342.370442 142.52499997 348.088531 146.0887729 351.218139 152.445909" stroke="#000000" stroke-width="1" fill="none"></path><path id="SvgjsPath1063428" d="M 351.218139 152.445909 C 354.448621 159.007951 353.4617 166.635111 348.645532 172.327628" stroke="#000000" stroke-width="1" fill="none"></path><path id="SvgjsPath1063429" d="M 348.645532 172.327628 C 345.235792 176.357804 338.241828 178.780074 332.480634 177.926134" stroke="#000000" stroke-width="1" fill="none"></path><path id="SvgjsPath1063582" d="M 332.480634 212.926134 C 328.994307 212.409381 324.0118666 209.759393 321.9544658 207.327628" stroke="#000000" stroke-width="1" fill="none"></path><path id="SvgjsPath1063583" d="M 321.9544658 207.327628 C 311.9469156 195.499107 319.9956704 177.52499997 335.299999 177.52499997" stroke="#000000" stroke-width="1" fill="none"></path><path id="SvgjsPath1063584" d="M 335.299999 177.52499997 C 342.370442 177.52499997 348.088531 181.0887729 351.218139 187.445909" stroke="#000000" stroke-width="1" fill="none"></path><path id="SvgjsPath1063585" d="M 351.218139 187.445909 C 354.448621 194.007951 353.4617 201.635111 348.645532 207.327628" stroke="#000000" stroke-width="1" fill="none"></path><path id="SvgjsPath1063586" d="M 348.645532 207.327628 C 345.235792 211.357804 338.241828 213.780074 332.480634 212.926134" stroke="#000000" stroke-width="1" fill="none"></path><path id="SvgjsPath1063739" d="M 332.480634 247.926134 C 328.994307 247.409381 324.0118666 244.759393 321.9544658 242.327628" stroke="#000000" stroke-width="1" fill="none"></path><path id="SvgjsPath1063740" d="M 321.9544658 242.327628 C 311.9469156 230.499107 319.9956704 212.52499997 335.299999 212.52499997" stroke="#000000" stroke-width="1" fill="none"></path><path id="SvgjsPath1063741" d="M 335.299999 212.52499997 C 342.370442 212.52499997 348.088531 216.0887729 351.218139 222.445909" stroke="#000000" stroke-width="1" fill="none"></path><path id="SvgjsPath1063742" d="M 351.218139 222.445909 C 354.448621 229.007951 353.4617 236.635111 348.645532 242.327628" stroke="#000000" stroke-width="1" fill="none"></path><path id="SvgjsPath1063743" d="M 348.645532 242.327628 C 345.235792 246.357804 338.241828 248.780074 332.480634 247.926134" stroke="#000000" stroke-width="1" fill="none"></path><path id="SvgjsPath1063896" d="M 332.480634 282.926134 C 328.994307 282.409381 324.0118666 279.759393 321.9544658 277.327628" stroke="#000000" stroke-width="1" fill="none"></path><path id="SvgjsPath1063897" d="M 321.9544658 277.327628 C 311.9469156 265.499107 319.9956704 247.52499997 335.299999 247.52499997" stroke="#000000" stroke-width="1" fill="none"></path><path id="SvgjsPath1063898" d="M 335.299999 247.52499997 C 342.370442 247.52499997 348.088531 251.0887729 351.218139 257.44590900000003" stroke="#000000" stroke-width="1" fill="none"></path><path id="SvgjsPath1063899" d="M 351.218139 257.44590900000003 C 354.448621 264.007951 353.4617 271.635111 348.645532 277.327628" stroke="#000000" stroke-width="1" fill="none"></path><path id="SvgjsPath1063900" d="M 348.645532 277.327628 C 345.235792 281.357804 338.241828 283.780074 332.480634 282.926134" stroke="#000000" stroke-width="1" fill="none"></path><path id="SvgjsPath1064053" d="M 332.480634 317.926134 C 328.994307 317.409381 324.0118666 314.759393 321.9544658 312.327628" stroke="#000000" stroke-width="1" fill="none"></path><path id="SvgjsPath1064054" d="M 321.9544658 312.327628 C 311.9469156 300.499107 319.9956704 282.52499997 335.299999 282.52499997" stroke="#000000" stroke-width="1" fill="none"></path><path id="SvgjsPath1064055" d="M 335.299999 282.52499997 C 342.370442 282.52499997 348.088531 286.0887729 351.218139 292.44590900000003" stroke="#000000" stroke-width="1" fill="none"></path><path id="SvgjsPath1064056" d="M 351.218139 292.44590900000003 C 354.448621 299.007951 353.4617 306.635111 348.645532 312.327628" stroke="#000000" stroke-width="1" fill="none"></path><path id="SvgjsPath1064057" d="M 348.645532 312.327628 C 345.235792 316.357804 338.241828 318.780074 332.480634 317.926134" stroke="#000000" stroke-width="1" fill="none"></path><path id="SvgjsPath1064210" d="M 332.480634 352.926134 C 328.994307 352.409381 324.0118666 349.759393 321.9544658 347.327628" stroke="#000000" stroke-width="1" fill="none"></path><path id="SvgjsPath1064211" d="M 321.9544658 347.327628 C 311.9469156 335.499107 319.9956704 317.52499997 335.299999 317.52499997" stroke="#000000" stroke-width="1" fill="none"></path><path id="SvgjsPath1064212" d="M 335.299999 317.52499997 C 342.370442 317.52499997 348.088531 321.0887729 351.218139 327.44590900000003" stroke="#000000" stroke-width="1" fill="none"></path><path id="SvgjsPath1064213" d="M 351.218139 327.44590900000003 C 354.448621 334.007951 353.4617 341.635111 348.645532 347.327628" stroke="#000000" stroke-width="1" fill="none"></path><path id="SvgjsPath1064214" d="M 348.645532 347.327628 C 345.235792 351.357804 338.241828 353.780074 332.480634 352.926134" stroke="#000000" stroke-width="1" fill="none"></path></svg>